<svg xmlns="http://www.w3.org/2000/svg" xmlns:xlink="http://www.w3.org/1999/xlink" width="1824" zoomAndPan="magnify" viewBox="0 0 1368 168.749997" height="225" preserveAspectRatio="xMidYMid meet" version="1.0"><defs><g/><clipPath id="2b826ded48"><path d="M 68 46 L 102 46 L 102 91 L 68 91 Z M 68 46 " clip-rule="nonzero"/></clipPath><clipPath id="ccfa2d3192"><path d="M 91.480469 46.601562 L 101.730469 52.660156 L 79.074219 90.992188 L 68.824219 84.933594 Z M 91.480469 46.601562 " clip-rule="nonzero"/></clipPath><clipPath id="011c39a6aa"><path d="M 91.480469 46.601562 L 101.730469 52.660156 L 79.074219 90.992188 L 68.824219 84.933594 Z M 91.480469 46.601562 " clip-rule="nonzero"/></clipPath><clipPath id="dc6e571dea"><path d="M 91.480469 46.601562 L 101.730469 52.660156 L 79.074219 90.992188 L 68.824219 84.933594 Z M 91.480469 46.601562 " clip-rule="nonzero"/></clipPath><linearGradient x1="0" gradientTransform="matrix(0.0400452, 0.0236707, -0.0885044, 0.149728, 91.480769, 46.601966)" y1="-29.992151" x2="0" gradientUnits="userSpaceOnUse" y2="285.992122" id="28d560ac48"><stop stop-opacity="1" stop-color="rgb(31.799316%, 79.199219%, 67.799377%)" offset="0"/><stop stop-opacity="1" stop-color="rgb(31.799316%, 79.199219%, 67.799377%)" offset="0.5"/><stop stop-opacity="1" stop-color="rgb(31.582642%, 78.657532%, 67.448425%)" offset="0.503906"/><stop stop-opacity="1" stop-color="rgb(31.367493%, 78.117371%, 67.097473%)" offset="0.507812"/><stop stop-opacity="1" stop-color="rgb(31.150818%, 77.575684%, 66.746521%)" offset="0.511719"/><stop stop-opacity="1" stop-color="rgb(30.935669%, 77.035522%, 66.395569%)" offset="0.515625"/><stop stop-opacity="1" stop-color="rgb(30.718994%, 76.493835%, 66.044617%)" offset="0.519531"/><stop stop-opacity="1" stop-color="rgb(30.503845%, 75.953674%, 65.693665%)" offset="0.523438"/><stop stop-opacity="1" stop-color="rgb(30.28717%, 75.411987%, 65.342712%)" offset="0.527344"/><stop stop-opacity="1" stop-color="rgb(30.070496%, 74.871826%, 64.99176%)" offset="0.53125"/><stop stop-opacity="1" stop-color="rgb(29.853821%, 74.330139%, 64.640808%)" offset="0.535156"/><stop stop-opacity="1" stop-color="rgb(29.638672%, 73.789978%, 64.289856%)" offset="0.539063"/><stop stop-opacity="1" stop-color="rgb(29.421997%, 73.248291%, 63.937378%)" offset="0.542969"/><stop stop-opacity="1" stop-color="rgb(29.206848%, 72.70813%, 63.586426%)" offset="0.546875"/><stop stop-opacity="1" stop-color="rgb(28.990173%, 72.166443%, 63.235474%)" offset="0.550781"/><stop stop-opacity="1" stop-color="rgb(28.775024%, 71.626282%, 62.884521%)" offset="0.554688"/><stop stop-opacity="1" stop-color="rgb(28.55835%, 71.084595%, 62.533569%)" offset="0.558594"/><stop stop-opacity="1" stop-color="rgb(28.343201%, 70.542908%, 62.182617%)" offset="0.5625"/><stop stop-opacity="1" stop-color="rgb(28.126526%, 70.001221%, 61.831665%)" offset="0.566406"/><stop stop-opacity="1" stop-color="rgb(27.911377%, 69.46106%, 61.480713%)" offset="0.570312"/><stop stop-opacity="1" stop-color="rgb(27.694702%, 68.919373%, 61.129761%)" offset="0.574219"/><stop stop-opacity="1" stop-color="rgb(27.479553%, 68.379211%, 60.778809%)" offset="0.578125"/><stop stop-opacity="1" stop-color="rgb(27.262878%, 67.837524%, 60.427856%)" offset="0.582031"/><stop stop-opacity="1" stop-color="rgb(27.047729%, 67.297363%, 60.076904%)" offset="0.585938"/><stop stop-opacity="1" stop-color="rgb(26.831055%, 66.755676%, 59.725952%)" offset="0.589844"/><stop stop-opacity="1" stop-color="rgb(26.61438%, 66.215515%, 59.375%)" offset="0.59375"/><stop stop-opacity="1" stop-color="rgb(26.397705%, 65.673828%, 59.024048%)" offset="0.597656"/><stop stop-opacity="1" stop-color="rgb(26.182556%, 65.133667%, 58.673096%)" offset="0.601562"/><stop stop-opacity="1" stop-color="rgb(25.965881%, 64.59198%, 58.322144%)" offset="0.605469"/><stop stop-opacity="1" stop-color="rgb(25.750732%, 64.051819%, 57.971191%)" offset="0.609375"/><stop stop-opacity="1" stop-color="rgb(25.534058%, 63.510132%, 57.620239%)" offset="0.613281"/><stop stop-opacity="1" stop-color="rgb(25.318909%, 62.969971%, 57.269287%)" offset="0.617188"/><stop stop-opacity="1" stop-color="rgb(25.102234%, 62.428284%, 56.918335%)" offset="0.621094"/><stop stop-opacity="1" stop-color="rgb(24.887085%, 61.888123%, 56.567383%)" offset="0.625"/><stop stop-opacity="1" stop-color="rgb(24.67041%, 61.346436%, 56.216431%)" offset="0.628906"/><stop stop-opacity="1" stop-color="rgb(24.455261%, 60.806274%, 55.865479%)" offset="0.632813"/><stop stop-opacity="1" stop-color="rgb(24.238586%, 60.264587%, 55.514526%)" offset="0.636719"/><stop stop-opacity="1" stop-color="rgb(24.023438%, 59.724426%, 55.163574%)" offset="0.640625"/><stop stop-opacity="1" stop-color="rgb(23.806763%, 59.182739%, 54.812622%)" offset="0.644531"/><stop stop-opacity="1" stop-color="rgb(23.591614%, 58.642578%, 54.46167%)" offset="0.648438"/><stop stop-opacity="1" stop-color="rgb(23.374939%, 58.100891%, 54.109192%)" offset="0.652344"/><stop stop-opacity="1" stop-color="rgb(23.15979%, 57.56073%, 53.75824%)" offset="0.65625"/><stop stop-opacity="1" stop-color="rgb(22.943115%, 57.019043%, 53.407288%)" offset="0.660156"/><stop stop-opacity="1" stop-color="rgb(22.72644%, 56.478882%, 53.056335%)" offset="0.664062"/><stop stop-opacity="1" stop-color="rgb(22.509766%, 55.937195%, 52.705383%)" offset="0.667969"/><stop stop-opacity="1" stop-color="rgb(22.294617%, 55.397034%, 52.354431%)" offset="0.671875"/><stop stop-opacity="1" stop-color="rgb(22.077942%, 54.855347%, 52.003479%)" offset="0.675781"/><stop stop-opacity="1" stop-color="rgb(21.862793%, 54.31366%, 51.652527%)" offset="0.679688"/><stop stop-opacity="1" stop-color="rgb(21.646118%, 53.771973%, 51.301575%)" offset="0.683594"/><stop stop-opacity="1" stop-color="rgb(21.430969%, 53.231812%, 50.950623%)" offset="0.6875"/><stop stop-opacity="1" stop-color="rgb(21.214294%, 52.690125%, 50.59967%)" offset="0.691406"/><stop stop-opacity="1" stop-color="rgb(20.999146%, 52.149963%, 50.248718%)" offset="0.695312"/><stop stop-opacity="1" stop-color="rgb(20.782471%, 51.608276%, 49.897766%)" offset="0.699219"/><stop stop-opacity="1" stop-color="rgb(20.567322%, 51.068115%, 49.546814%)" offset="0.703125"/><stop stop-opacity="1" stop-color="rgb(20.350647%, 50.526428%, 49.195862%)" offset="0.707031"/><stop stop-opacity="1" stop-color="rgb(20.135498%, 49.986267%, 48.84491%)" offset="0.710938"/><stop stop-opacity="1" stop-color="rgb(19.918823%, 49.44458%, 48.493958%)" offset="0.714844"/><stop stop-opacity="1" stop-color="rgb(19.703674%, 48.904419%, 48.143005%)" offset="0.71875"/><stop stop-opacity="1" stop-color="rgb(19.487%, 48.362732%, 47.792053%)" offset="0.722656"/><stop stop-opacity="1" stop-color="rgb(19.270325%, 47.822571%, 47.441101%)" offset="0.726562"/><stop stop-opacity="1" stop-color="rgb(19.05365%, 47.280884%, 47.090149%)" offset="0.730469"/><stop stop-opacity="1" stop-color="rgb(18.838501%, 46.740723%, 46.739197%)" offset="0.734375"/><stop stop-opacity="1" stop-color="rgb(18.621826%, 46.199036%, 46.388245%)" offset="0.738281"/><stop stop-opacity="1" stop-color="rgb(18.406677%, 45.658875%, 46.037292%)" offset="0.742188"/><stop stop-opacity="1" stop-color="rgb(18.190002%, 45.117188%, 45.68634%)" offset="0.746094"/><stop stop-opacity="1" stop-color="rgb(17.974854%, 44.577026%, 45.335388%)" offset="0.75"/><stop stop-opacity="1" stop-color="rgb(17.758179%, 44.035339%, 44.98291%)" offset="0.753906"/><stop stop-opacity="1" stop-color="rgb(17.54303%, 43.495178%, 44.631958%)" offset="0.757812"/><stop stop-opacity="1" stop-color="rgb(17.326355%, 42.953491%, 44.281006%)" offset="0.761719"/><stop stop-opacity="1" stop-color="rgb(17.111206%, 42.41333%, 43.930054%)" offset="0.765625"/><stop stop-opacity="1" stop-color="rgb(16.894531%, 41.871643%, 43.579102%)" offset="0.769531"/><stop stop-opacity="1" stop-color="rgb(16.679382%, 41.331482%, 43.228149%)" offset="0.773438"/><stop stop-opacity="1" stop-color="rgb(16.462708%, 40.789795%, 42.877197%)" offset="0.777344"/><stop stop-opacity="1" stop-color="rgb(16.247559%, 40.249634%, 42.526245%)" offset="0.78125"/><stop stop-opacity="1" stop-color="rgb(16.030884%, 39.707947%, 42.175293%)" offset="0.785156"/><stop stop-opacity="1" stop-color="rgb(15.814209%, 39.16626%, 41.824341%)" offset="0.789062"/><stop stop-opacity="1" stop-color="rgb(15.597534%, 38.624573%, 41.473389%)" offset="0.792969"/><stop stop-opacity="1" stop-color="rgb(15.382385%, 38.084412%, 41.122437%)" offset="0.796875"/><stop stop-opacity="1" stop-color="rgb(15.16571%, 37.542725%, 40.771484%)" offset="0.800781"/><stop stop-opacity="1" stop-color="rgb(14.950562%, 37.002563%, 40.420532%)" offset="0.804688"/><stop stop-opacity="1" stop-color="rgb(14.733887%, 36.460876%, 40.06958%)" offset="0.808594"/><stop stop-opacity="1" stop-color="rgb(14.518738%, 35.920715%, 39.718628%)" offset="0.8125"/><stop stop-opacity="1" stop-color="rgb(14.302063%, 35.379028%, 39.367676%)" offset="0.816406"/><stop stop-opacity="1" stop-color="rgb(14.086914%, 34.838867%, 39.016724%)" offset="0.820312"/><stop stop-opacity="1" stop-color="rgb(13.870239%, 34.29718%, 38.665771%)" offset="0.824219"/><stop stop-opacity="1" stop-color="rgb(13.65509%, 33.757019%, 38.314819%)" offset="0.828125"/><stop stop-opacity="1" stop-color="rgb(13.438416%, 33.215332%, 37.963867%)" offset="0.832031"/><stop stop-opacity="1" stop-color="rgb(13.223267%, 32.675171%, 37.612915%)" offset="0.835938"/><stop stop-opacity="1" stop-color="rgb(13.006592%, 32.133484%, 37.261963%)" offset="0.839844"/><stop stop-opacity="1" stop-color="rgb(12.791443%, 31.593323%, 36.911011%)" offset="0.84375"/><stop stop-opacity="1" stop-color="rgb(12.574768%, 31.051636%, 36.560059%)" offset="0.847656"/><stop stop-opacity="1" stop-color="rgb(12.358093%, 30.511475%, 36.209106%)" offset="0.851562"/><stop stop-opacity="1" stop-color="rgb(12.141418%, 29.969788%, 35.858154%)" offset="0.855469"/><stop stop-opacity="1" stop-color="rgb(11.92627%, 29.429626%, 35.507202%)" offset="0.859375"/><stop stop-opacity="1" stop-color="rgb(11.709595%, 28.887939%, 35.154724%)" offset="0.863281"/><stop stop-opacity="1" stop-color="rgb(11.494446%, 28.347778%, 34.803772%)" offset="0.867187"/><stop stop-opacity="1" stop-color="rgb(11.277771%, 27.806091%, 34.45282%)" offset="0.871094"/><stop stop-opacity="1" stop-color="rgb(11.062622%, 27.26593%, 34.101868%)" offset="0.875"/><stop stop-opacity="1" stop-color="rgb(10.845947%, 26.724243%, 33.750916%)" offset="0.878906"/><stop stop-opacity="1" stop-color="rgb(10.630798%, 26.184082%, 33.399963%)" offset="0.882812"/><stop stop-opacity="1" stop-color="rgb(10.414124%, 25.642395%, 33.049011%)" offset="0.886719"/><stop stop-opacity="1" stop-color="rgb(10.198975%, 25.102234%, 32.698059%)" offset="0.890625"/><stop stop-opacity="1" stop-color="rgb(9.9823%, 24.560547%, 32.347107%)" offset="0.894531"/><stop stop-opacity="1" stop-color="rgb(9.767151%, 24.020386%, 31.996155%)" offset="0.898437"/><stop stop-opacity="1" stop-color="rgb(9.58252%, 23.55957%, 31.697083%)" offset="0.902344"/><stop stop-opacity="1" stop-color="rgb(9.399414%, 23.098755%, 31.399536%)" offset="0.90625"/><stop stop-opacity="1" stop-color="rgb(9.399414%, 23.098755%, 31.399536%)" offset="0.9375"/><stop stop-opacity="1" stop-color="rgb(9.399414%, 23.098755%, 31.399536%)" offset="1"/></linearGradient><clipPath id="3e1c26b745"><path d="M 80 47 L 112 47 L 112 93 L 80 93 Z M 80 47 " clip-rule="nonzero"/></clipPath><clipPath id="9de8cdbd1f"><path d="M 104.816406 47.441406 L 111.125 51.179688 L 86.59375 92.574219 L 80.285156 88.835938 Z M 104.816406 47.441406 " clip-rule="nonzero"/></clipPath><clipPath id="43b88b720e"><path d="M 104.816406 47.441406 L 111.125 51.179688 L 86.59375 92.574219 L 80.285156 88.835938 Z M 104.816406 47.441406 " clip-rule="nonzero"/></clipPath><clipPath id="6edacd3292"><path d="M 84 39 L 107 39 L 107 59 L 84 59 Z M 84 39 " clip-rule="nonzero"/></clipPath><clipPath id="bf8dcec7d1"><path d="M 91.355469 32.886719 L 113.664062 45.890625 L 106.558594 58.078125 L 84.25 45.078125 Z M 91.355469 32.886719 " clip-rule="nonzero"/></clipPath><clipPath id="2322db1346"><path d="M 102.507812 39.386719 L 106.558594 58.078125 L 84.25 45.078125 Z M 102.507812 39.386719 " clip-rule="nonzero"/></clipPath></defs><g fill="#183b50" fill-opacity="1"><g transform="translate(28.689069, 109.749278)"><g><path d="M 19.359375 -40.375 L 34.992188 -14.285156 L 47.414062 -14.285156 L 63.046875 -40.375 L 63.046875 0 L 75.472656 0 L 75.472656 -63.359375 L 63.046875 -63.359375 L 41.203125 -25.777344 L 19.359375 -63.359375 L 6.9375 -63.359375 L 6.9375 0 L 19.359375 0 Z M 19.359375 -40.375 "/></g></g></g><g fill="#183b50" fill-opacity="1"><g transform="translate(121.554042, 109.749278)"><g><path d="M 7.351562 -63.359375 L 7.351562 0 L 19.773438 0 L 19.773438 -63.359375 Z M 7.351562 -63.359375 "/></g></g></g><g fill="#183b50" fill-opacity="1"><g transform="translate(159.031325, 109.749278)"><g><path d="M 60.875 -37.476562 L 32.921875 -37.476562 L 32.921875 -25.882812 L 48.453125 -25.882812 L 48.453125 -12.320312 C 44.828125 -11.59375 41.101562 -11.285156 37.996094 -11.285156 C 22.050781 -11.285156 17.1875 -19.878906 17.1875 -31.367188 C 17.1875 -43.066406 22.257812 -51.867188 39.652344 -51.867188 C 45.863281 -51.867188 53.523438 -50.730469 57.769531 -48.867188 L 57.769531 -61.597656 C 52.488281 -63.152344 44.929688 -63.878906 39.753906 -63.878906 C 16.566406 -63.878906 4.761719 -49.589844 4.761719 -31.367188 C 4.761719 -13.5625 15.945312 0.726562 37.476562 0.726562 C 44.308594 0.726562 53.523438 -0.726562 60.875 -3.625 Z M 60.875 -37.476562 "/></g></g></g><g fill="#183b50" fill-opacity="1"><g transform="translate(235.228228, 109.749278)"><g><path d="M 52.488281 -11.59375 L 19.359375 -11.59375 L 19.359375 -63.359375 L 6.9375 -63.359375 L 6.9375 0 L 52.488281 0 Z M 52.488281 -11.59375 "/></g></g></g><g fill="#183b50" fill-opacity="1"><g transform="translate(300.55465, 109.749278)"><g><path d="M 7.351562 -63.359375 L 7.351562 0 L 19.773438 0 L 19.773438 -63.359375 Z M 7.351562 -63.359375 "/></g></g></g><g fill="#183b50" fill-opacity="1"><g transform="translate(338.031921, 109.749278)"><g><path d="M 36.339844 -11.078125 C 22.878906 -11.078125 17.1875 -20.292969 17.1875 -31.679688 C 17.1875 -43.066406 22.878906 -52.28125 36.339844 -52.28125 C 49.796875 -52.28125 55.492188 -43.066406 55.492188 -31.679688 C 55.492188 -20.292969 49.796875 -11.078125 36.339844 -11.078125 Z M 36.339844 0.519531 C 56.320312 0.519531 67.914062 -13.871094 67.914062 -31.679688 C 67.914062 -49.488281 56.320312 -63.878906 36.339844 -63.878906 C 16.359375 -63.878906 4.761719 -49.488281 4.761719 -31.679688 C 4.761719 -13.871094 16.359375 0.519531 36.339844 0.519531 Z M 36.339844 0.519531 "/></g></g></g><g fill="#183b50" fill-opacity="1"><g transform="translate(421.061707, 109.749278)"><g><path d="M 44.929688 0 L 60.355469 0 L 41.929688 -22.878906 C 50.417969 -25.984375 56.734375 -33.335938 56.734375 -42.550781 C 56.734375 -53.835938 47.105469 -63.359375 34.890625 -63.359375 L 6.9375 -63.359375 L 6.9375 0 L 19.359375 0 L 19.359375 -51.765625 L 34.890625 -51.765625 C 39.859375 -51.765625 44.308594 -48.660156 44.308594 -41.722656 C 44.308594 -34.371094 39.445312 -31.679688 32.820312 -31.679688 L 19.566406 -31.679688 Z M 44.929688 0 "/></g></g></g><g fill="#183b50" fill-opacity="1"><g transform="translate(493.324508, 109.749278)"><g><path d="M 7.351562 -63.359375 L 7.351562 0 L 19.773438 0 L 19.773438 -63.359375 Z M 7.351562 -63.359375 "/></g></g></g><g clip-path="url(#2b826ded48)"><g clip-path="url(#ccfa2d3192)"><g clip-path="url(#011c39a6aa)"><g clip-path="url(#dc6e571dea)"><path fill="url(#28d560ac48)" d="M 77.34375 32.1875 L 49.378906 79.5 L 93.210938 105.40625 L 121.175781 58.097656 Z M 77.34375 32.1875 " fill-rule="nonzero"/></g></g></g></g><g clip-path="url(#3e1c26b745)"><g clip-path="url(#9de8cdbd1f)"><g clip-path="url(#43b88b720e)"><path fill="#ffffff" d="M 104.816406 47.441406 L 111.125 51.179688 L 86.59375 92.574219 L 80.285156 88.835938 Z M 104.816406 47.441406 " fill-opacity="1" fill-rule="nonzero"/></g></g></g><g clip-path="url(#6edacd3292)"><g clip-path="url(#bf8dcec7d1)"><g clip-path="url(#2322db1346)"><path fill="#51caad" d="M 91.355469 32.886719 L 113.664062 45.890625 L 106.558594 58.078125 L 84.25 45.078125 Z M 91.355469 32.886719 " fill-opacity="1" fill-rule="nonzero"/></g></g></g><g fill="#51caad" fill-opacity="1"><g transform="translate(547.28235, 108.623083)"><g><path d="M 46.414062 -14.75 C 42.960938 -12.941406 36.835938 -11.90625 30.96875 -11.90625 C 18.632812 -11.90625 16.046875 -18.203125 16.046875 -26.398438 C 16.046875 -34.507812 18.632812 -40.71875 30.882812 -40.71875 C 36.75 -40.71875 42.960938 -39.597656 46.414062 -37.871094 L 46.414062 -51.15625 C 41.925781 -52.539062 36.320312 -53.226562 30.109375 -53.226562 C 13.113281 -53.226562 3.105469 -41.324219 3.105469 -26.3125 C 3.105469 -11.300781 13.113281 0.605469 30.195312 0.605469 C 36.320312 0.605469 41.925781 -0.171875 46.414062 -1.464844 Z M 46.414062 -14.75 "/></g></g></g><g fill="#51caad" fill-opacity="1"><g transform="translate(600.594716, 108.623083)"><g><path d="M 30.28125 -11.558594 C 20.273438 -11.558594 16.046875 -18.289062 16.046875 -26.398438 C 16.046875 -34.507812 20.273438 -41.234375 30.28125 -41.234375 C 40.289062 -41.234375 44.515625 -34.507812 44.515625 -26.398438 C 44.515625 -18.289062 40.289062 -11.558594 30.28125 -11.558594 Z M 30.28125 0.429688 C 47.449219 0.429688 57.453125 -11.558594 57.453125 -26.398438 C 57.453125 -41.234375 47.449219 -53.226562 30.28125 -53.226562 C 13.113281 -53.226562 3.105469 -41.234375 3.105469 -26.398438 C 3.105469 -11.558594 13.113281 0.429688 30.28125 0.429688 Z M 30.28125 0.429688 "/></g></g></g><g fill="#51caad" fill-opacity="1"><g transform="translate(665.46663, 108.623083)"><g><path d="M 38.5625 -52.796875 L 38.5625 -21.914062 L 17.859375 -52.796875 L 4.917969 -52.796875 L 4.917969 0 L 17.859375 0 L 17.859375 -30.882812 L 38.5625 0 L 51.503906 0 L 51.503906 -52.796875 Z M 38.5625 -52.796875 "/></g></g></g><g fill="#51caad" fill-opacity="1"><g transform="translate(726.28408, 108.623083)"><g><path d="M 1.8125 -52.796875 L 1.8125 -40.804688 L 17.339844 -40.804688 L 17.339844 0 L 30.28125 0 L 30.28125 -40.804688 L 45.808594 -40.804688 L 45.808594 -52.796875 Z M 1.8125 -52.796875 "/></g></g></g><g fill="#51caad" fill-opacity="1"><g transform="translate(778.216212, 108.623083)"><g><path d="M 4.832031 -52.796875 L 4.832031 0 L 17.769531 0 L 17.769531 -52.796875 Z M 4.832031 -52.796875 "/></g></g></g><g fill="#51caad" fill-opacity="1"><g transform="translate(805.131416, 108.623083)"><g/></g></g><g fill="#51caad" fill-opacity="1"><g transform="translate(828.423464, 108.623083)"><g><path d="M 23.464844 0 C 40.632812 0 50.640625 -11.820312 50.640625 -26.398438 C 50.640625 -40.976562 40.632812 -52.796875 23.464844 -52.796875 L 4.917969 -52.796875 L 4.917969 0 Z M 17.859375 -40.804688 L 23.464844 -40.804688 C 33.472656 -40.804688 37.699219 -34.25 37.699219 -26.398438 C 37.699219 -18.546875 33.472656 -11.992188 23.464844 -11.992188 L 17.859375 -11.992188 Z M 17.859375 -40.804688 "/></g></g></g><g fill="#51caad" fill-opacity="1"><g transform="translate(886.480432, 108.623083)"><g><path d="M 4.917969 -52.796875 L 4.917969 0 L 44.167969 0 L 44.167969 -11.992188 L 17.859375 -11.992188 L 17.859375 -20.359375 L 38.992188 -20.359375 L 38.992188 -32.351562 L 17.859375 -32.351562 L 17.859375 -40.804688 L 44.167969 -40.804688 L 44.167969 -52.796875 Z M 4.917969 -52.796875 "/></g></g></g><g fill="#51caad" fill-opacity="1"><g transform="translate(937.37738, 108.623083)"><g><path d="M 4.917969 0 L 17.859375 0 L 17.859375 -18.117188 L 29.933594 -18.117188 C 40.113281 -18.117188 48.136719 -26.054688 48.136719 -35.457031 C 48.136719 -44.859375 40.113281 -52.796875 29.933594 -52.796875 L 4.917969 -52.796875 Z M 29.933594 -40.804688 C 32.867188 -40.804688 35.199219 -38.476562 35.199219 -35.457031 C 35.199219 -32.4375 32.867188 -30.109375 29.933594 -30.109375 L 17.859375 -30.109375 L 17.859375 -40.804688 Z M 29.933594 -40.804688 "/></g></g></g><g fill="#51caad" fill-opacity="1"><g transform="translate(991.379879, 108.623083)"><g><path d="M 30.28125 -11.558594 C 20.273438 -11.558594 16.046875 -18.289062 16.046875 -26.398438 C 16.046875 -34.507812 20.273438 -41.234375 30.28125 -41.234375 C 40.289062 -41.234375 44.515625 -34.507812 44.515625 -26.398438 C 44.515625 -18.289062 40.289062 -11.558594 30.28125 -11.558594 Z M 30.28125 0.429688 C 47.449219 0.429688 57.453125 -11.558594 57.453125 -26.398438 C 57.453125 -41.234375 47.449219 -53.226562 30.28125 -53.226562 C 13.113281 -53.226562 3.105469 -41.234375 3.105469 -26.398438 C 3.105469 -11.558594 13.113281 0.429688 30.28125 0.429688 Z M 30.28125 0.429688 "/></g></g></g><g fill="#51caad" fill-opacity="1"><g transform="translate(1056.251774, 108.623083)"><g><path d="M 2.328125 -1.292969 C 7.417969 -0.171875 14.75 0.519531 20.101562 0.519531 C 33.472656 0.519531 44.082031 -3.796875 44.082031 -15.699219 C 44.082031 -27.691406 33.386719 -29.675781 24.929688 -31.832031 C 17.425781 -33.730469 14.75 -34.9375 14.75 -37.785156 C 14.75 -39.941406 16.648438 -40.804688 24.414062 -40.804688 C 30.539062 -40.804688 38.734375 -40.027344 42.269531 -39.078125 L 42.269531 -51.242188 C 37.269531 -52.539062 30.109375 -53.226562 25.019531 -53.226562 C 12.164062 -53.226562 2.414062 -48.742188 2.414062 -37.355469 C 2.414062 -24.15625 15.355469 -21.914062 20.617188 -20.789062 C 31.230469 -18.546875 31.746094 -15.785156 31.746094 -14.925781 C 31.746094 -12.507812 28.640625 -11.820312 20.617188 -11.820312 C 14.578125 -11.820312 6.46875 -12.421875 2.328125 -13.457031 Z M 2.328125 -1.292969 "/></g></g></g><g fill="#51caad" fill-opacity="1"><g transform="translate(1106.889919, 108.623083)"><g><path d="M 4.832031 -52.796875 L 4.832031 0 L 17.769531 0 L 17.769531 -52.796875 Z M 4.832031 -52.796875 "/></g></g></g><g fill="#51caad" fill-opacity="1"><g transform="translate(1133.805099, 108.623083)"><g><path d="M 1.8125 -52.796875 L 1.8125 -40.804688 L 17.339844 -40.804688 L 17.339844 0 L 30.28125 0 L 30.28125 -40.804688 L 45.808594 -40.804688 L 45.808594 -52.796875 Z M 1.8125 -52.796875 "/></g></g></g><g fill="#51caad" fill-opacity="1"><g transform="translate(1185.737231, 108.623083)"><g><path d="M 30.28125 -11.558594 C 20.273438 -11.558594 16.046875 -18.289062 16.046875 -26.398438 C 16.046875 -34.507812 20.273438 -41.234375 30.28125 -41.234375 C 40.289062 -41.234375 44.515625 -34.507812 44.515625 -26.398438 C 44.515625 -18.289062 40.289062 -11.558594 30.28125 -11.558594 Z M 30.28125 0.429688 C 47.449219 0.429688 57.453125 -11.558594 57.453125 -26.398438 C 57.453125 -41.234375 47.449219 -53.226562 30.28125 -53.226562 C 13.113281 -53.226562 3.105469 -41.234375 3.105469 -26.398438 C 3.105469 -11.558594 13.113281 0.429688 30.28125 0.429688 Z M 30.28125 0.429688 "/></g></g></g><g fill="#183b50" fill-opacity="1"><g transform="translate(1248.602348, 108.623083)"><g><path d="M 20.101562 -6.988281 C 20.101562 -11.128906 17.339844 -14.492188 12.679688 -14.492188 C 8.023438 -14.492188 5.175781 -11.042969 5.175781 -6.988281 C 5.175781 -2.847656 8.023438 0.429688 12.679688 0.429688 C 17.339844 0.429688 20.101562 -3.019531 20.101562 -6.988281 Z M 20.101562 -6.988281 "/></g></g></g><g fill="#183b50" fill-opacity="1"><g transform="translate(1278.191774, 108.623083)"><g><path d="M 3.882812 -43.132812 L 3.882812 0 L 16.824219 0 L 16.824219 -43.132812 Z M 10.351562 -47.1875 C 15.011719 -47.1875 17.769531 -50.46875 17.769531 -54.695312 C 17.769531 -58.664062 15.011719 -62.113281 10.351562 -62.113281 C 5.695312 -62.113281 2.847656 -58.75 2.847656 -54.695312 C 2.847656 -50.554688 5.695312 -47.1875 10.351562 -47.1875 Z M 10.351562 -47.1875 "/></g></g></g><g fill="#183b50" fill-opacity="1"><g transform="translate(1304.071788, 108.623083)"><g><path d="M 28.640625 -41.667969 L 16.5625 -41.667969 L 16.5625 -53.484375 L 3.625 -53.484375 L 3.625 -21.566406 C 3.625 -9.316406 12.59375 0.429688 26.828125 0.429688 C 29.074219 0.429688 29.675781 0.171875 31.144531 0 L 31.144531 -11.992188 C 30.019531 -11.820312 28.898438 -11.558594 27.347656 -11.558594 C 20.015625 -11.558594 16.5625 -15.699219 16.5625 -21.566406 L 16.5625 -29.675781 L 28.640625 -29.675781 Z M 28.640625 -41.667969 "/></g></g></g></svg>