<svg xmlns="http://www.w3.org/2000/svg" xmlns:xlink="http://www.w3.org/1999/xlink" width="720" zoomAndPan="magnify" viewBox="0 0 540 540.000001" height="720" preserveAspectRatio="xMidYMid meet" version="1.0"><defs><clipPath id="092d18cd82"><path d="M 348 167 L 461.410156 167 L 461.410156 372 L 348 372 Z M 348 167 " clip-rule="nonzero"/></clipPath><clipPath id="8436f9a4ae"><path d="M 435 364 L 461.410156 364 L 461.410156 411 L 435 411 Z M 435 364 " clip-rule="nonzero"/></clipPath><clipPath id="3940b09b08"><path d="M 349 167 L 461.410156 167 L 461.410156 214 L 349 214 Z M 349 167 " clip-rule="nonzero"/></clipPath><clipPath id="13cfe0534e"><path d="M 414 221 L 461.410156 221 L 461.410156 253 L 414 253 Z M 414 221 " clip-rule="nonzero"/></clipPath><clipPath id="740a0ae99d"><path d="M 426 361 L 461.410156 361 L 461.410156 372 L 426 372 Z M 426 361 " clip-rule="nonzero"/></clipPath><clipPath id="25e4ebbbb9"><path d="M 434.644531 370 L 461.410156 370 L 461.410156 411.699219 L 434.644531 411.699219 Z M 434.644531 370 " clip-rule="nonzero"/></clipPath></defs><path fill="#feede5" d="M 275.472656 210.113281 C 264.640625 200.800781 261.738281 185.890625 264.746094 172.371094 C 267.179688 161.429688 277.753906 150.757812 289.519531 151.550781 C 298.636719 152.164062 307.539062 158.253906 314.292969 163.992188 C 332.113281 179.128906 345.179688 202.957031 347.402344 226.28125 C 348.25 235.175781 348.378906 246.8125 342.503906 253.984375 C 340.976562 255.84375 339.929688 256.332031 338.195312 257.3125 C 323.828125 265.433594 308.625 252.925781 299.53125 242.445312 C 296.414062 238.851562 294.195312 235.78125 291.386719 231.96875 C 287.675781 226.925781 284.792969 221.1875 280.84375 216.347656 C 279.636719 214.871094 278.199219 213.535156 277.085938 211.960938 C 276.917969 211.726562 276.203125 210.742188 275.472656 210.113281 " fill-opacity="1" fill-rule="evenodd"/><path fill="#feede5" d="M 176.195312 336.8125 C 174.019531 334.90625 171.886719 332.929688 169.890625 330.832031 C 166.054688 326.777344 160.773438 322.683594 156.324219 319.34375 C 154.519531 317.992188 154.320312 317.167969 152.582031 315.820312 C 151.207031 314.75 148.445312 314.316406 146.765625 314.058594 C 142.625 313.421875 138.414062 314.160156 134.261719 314.269531 C 128.117188 314.4375 122.515625 314.054688 116.472656 313.148438 C 111.089844 312.339844 105.746094 311.035156 100.765625 308.820312 C 98.941406 308.011719 96.386719 305.597656 94.625 304.65625 C 93.140625 303.867188 92.457031 303.582031 90.722656 303.320312 C 87.894531 302.898438 84.207031 303.9375 81.75 302.09375 C 80.351562 301.042969 81.671875 300.898438 81.484375 299.957031 C 81.316406 299.132812 80.242188 298.789062 80.628906 297.765625 C 81.808594 294.617188 86.015625 294.671875 88.585938 293.816406 C 90.363281 293.222656 91.300781 291.933594 93.339844 291.730469 C 97.972656 291.265625 102.238281 289.433594 106.960938 290.128906 C 110.375 290.632812 113.015625 292.511719 116.257812 293.4375 C 119.082031 294.246094 122.699219 294.402344 125.605469 294.132812 C 129.648438 293.765625 131.683594 291.828125 135.167969 290.238281 C 137.644531 289.101562 138.199219 287.332031 140.882812 287.027344 C 143.832031 286.703125 149.886719 290.1875 152.480469 291.355469 C 156.285156 293.066406 158.0625 295.925781 161.574219 298.148438 C 165.101562 300.378906 170.359375 303.691406 173.632812 306.3125 C 176.421875 308.546875 180.25 310.574219 182.980469 312.882812 C 183.835938 313.605469 185.59375 314.09375 185.867188 315.449219 C 186.28125 317.523438 185.992188 320.042969 186.023438 322.125 C 186.105469 326.816406 185.929688 331.339844 183.085938 335.316406 C 182.261719 336.46875 180.8125 338.703125 179.585938 339.351562 C 179.128906 339.597656 176.652344 337.210938 176.195312 336.8125 " fill-opacity="1" fill-rule="evenodd"/><path fill="#f3877d" d="M 268.636719 137.679688 C 271.152344 134.367188 274.417969 134.265625 278.132812 132.671875 C 290.304688 127.457031 305.824219 131.875 315.769531 139.332031 C 319.90625 142.429688 326.265625 146.984375 328.992188 151.53125 C 330.949219 154.792969 332.921875 157.390625 335.210938 160.441406 C 337.855469 163.96875 340.742188 170.210938 343.691406 173.582031 C 347.113281 177.492188 348.394531 179.003906 352.796875 181.753906 C 353.804688 182.386719 358.242188 184.699219 359.675781 184.523438 C 361.109375 184.34375 356.207031 186.78125 355.632812 187.035156 C 353.480469 187.996094 353.160156 187.378906 350.886719 187.835938 C 349.984375 188.011719 349.054688 188.304688 349.355469 189.359375 C 349.699219 190.5625 350.207031 191.769531 350.960938 192.710938 C 352.863281 195.089844 354.644531 198.5 356.257812 201.117188 C 360.890625 208.644531 364.183594 216.320312 366.046875 224.902344 C 367.484375 231.53125 367.953125 240.253906 366.40625 246.9375 C 364.441406 255.457031 359.148438 260.675781 358.402344 269.621094 C 358.085938 273.425781 357.980469 277.546875 358.402344 281.339844 C 359.714844 293.152344 366.898438 307.414062 357.511719 317.519531 C 356.449219 318.664062 355.316406 320.1875 353.941406 320.960938 C 349.246094 323.601562 339.257812 320.539062 338.144531 314.589844 C 337.269531 309.929688 339.914062 306.132812 340.691406 301.722656 C 342.152344 293.441406 341.675781 284.589844 337.890625 277.011719 C 333.089844 267.414062 329.789062 260.125 329.355469 249.355469 C 328.914062 238.316406 331.660156 224.421875 331.414062 212.683594 C 331.3125 207.816406 330.019531 204.570312 328.84375 200.0625 C 326.519531 191.160156 318.652344 184.890625 312.289062 178.53125 C 310.433594 176.671875 308.152344 173.933594 306.421875 171.90625 C 301.941406 166.6875 297.667969 157.40625 290.617188 155.523438 C 281.03125 152.96875 275.101562 158.476562 272.332031 166.800781 C 269.390625 175.621094 274.019531 183.566406 275.078125 192.035156 C 275.621094 196.417969 274.910156 201.050781 275.710938 205.414062 C 276.585938 210.164062 285.664062 218.746094 290.113281 221.335938 C 291.832031 222.339844 295.203125 224.480469 297.148438 224.964844 C 299.996094 225.679688 300.882812 225.957031 303.585938 227.203125 C 304.429688 227.59375 306.359375 228.164062 306.007812 229.929688 C 305.214844 233.886719 304.363281 242.046875 303.234375 245.921875 C 301.378906 252.285156 300.464844 259.742188 297.867188 266.128906 C 293.515625 276.84375 287.296875 286.535156 284.917969 297.484375 C 283.171875 305.519531 281.90625 312.003906 283.738281 320.066406 C 285.644531 328.457031 289.222656 333.957031 287.546875 342.71875 C 285.992188 350.828125 278.644531 363.765625 269.597656 363.765625 C 262.859375 363.765625 266.574219 357.121094 267.265625 352.046875 C 267.953125 346.980469 267.398438 342.121094 266.265625 338.726562 C 262.03125 326.023438 252.503906 319.09375 248.402344 306.421875 C 245.386719 297.101562 250.117188 282.683594 253.949219 270.753906 C 256.054688 264.199219 258.933594 254.195312 259.492188 247.332031 C 260.503906 234.972656 260.007812 224.898438 255.710938 213.3125 C 250.632812 199.605469 244.40625 179.078125 248.871094 162.566406 C 250.863281 155.191406 255.378906 148.101562 260.585938 142.519531 C 262.398438 140.578125 267.136719 139.65625 268.636719 137.679688 " fill-opacity="1" fill-rule="evenodd"/><path fill="#ffffff" d="M 305.570312 230.34375 C 305.542969 230.144531 305.265625 228.304688 306.039062 228.503906 C 307.304688 228.824219 308.960938 230.84375 309.867188 231.789062 C 313.0625 235.121094 314.066406 237.773438 317.875 242.5 C 319.273438 244.234375 328.253906 248.542969 328.734375 250.757812 C 329.535156 254.425781 330.539062 258.691406 332.25 263.542969 C 333.371094 266.726562 334.566406 269.800781 336.023438 272.882812 C 337.828125 276.710938 339.1875 280.71875 340.519531 284.726562 C 341.304688 287.078125 342.183594 289.875 341.914062 292.386719 C 341.765625 293.753906 341.941406 295.039062 341.964844 296.40625 C 341.96875 296.546875 342.085938 297.625 341.96875 297.6875 C 341.421875 297.957031 340.515625 296.730469 340.246094 296.503906 C 339.179688 295.601562 337.703125 294.167969 336.199219 294.730469 C 332.964844 295.929688 330.4375 299.546875 327.910156 301.660156 C 323.175781 305.605469 317.828125 308.796875 313 312.683594 C 306.152344 318.195312 300.5625 325.019531 293.820312 330.589844 C 292.242188 331.894531 290.652344 333.359375 289.007812 334.566406 C 288.84375 334.691406 287.902344 335.707031 287.675781 335.589844 C 287.164062 335.324219 287.175781 334.546875 287.070312 334.070312 C 286.582031 331.824219 286.199219 329.5625 285.78125 327.304688 C 284.5 320.347656 281.414062 311.84375 282.980469 304.746094 C 286.632812 288.1875 295.359375 274.917969 300.199219 258.886719 C 302.242188 252.109375 304.402344 245.390625 304.519531 238.355469 C 304.5625 235.746094 305.871094 232.90625 305.570312 230.34375 " fill-opacity="1" fill-rule="evenodd"/><path fill="#ffffff" d="M 171.234375 332.371094 C 171.628906 331.765625 172.234375 333.144531 172.671875 333.636719 C 173.957031 335.078125 175.328125 336.351562 176.6875 337.710938 C 177.035156 338.054688 178.230469 339.09375 178.753906 338.570312 C 180.640625 336.683594 181.667969 333.5 182.488281 331.050781 C 183.796875 327.125 185.28125 321.171875 185.472656 316.988281 C 185.554688 315.125 185.636719 315.144531 184.496094 313.71875 C 184.070312 313.1875 183.324219 313.152344 183 312.511719 C 182.679688 311.871094 183.171875 310.984375 183.863281 310.847656 C 185.628906 310.496094 187.453125 312.472656 188.917969 313.199219 C 192.144531 314.8125 195.316406 317.152344 198.617188 318.65625 C 211.636719 324.570312 224.140625 328.035156 237.9375 331.796875 C 238.867188 332.050781 242.652344 333.28125 243.5625 333.117188 C 244.980469 332.867188 246.316406 329.929688 247.292969 328.984375 C 249.21875 327.125 250.511719 325.652344 252.40625 323.761719 C 253.511719 322.65625 253.515625 322.148438 254.699219 321.121094 C 254.988281 320.871094 255.628906 319.84375 256.078125 319.972656 C 256.335938 320.046875 256.671875 321.398438 256.765625 321.636719 C 257.449219 323.335938 258.589844 324.777344 259.695312 326.230469 C 263.859375 331.710938 265.976562 336.46875 267.386719 343.046875 C 268.136719 346.558594 268.523438 353.109375 266.351562 356.363281 C 263.992188 359.902344 258.109375 362.433594 254.46875 364.113281 C 248.285156 366.96875 244.316406 366.464844 237.417969 366.007812 C 235.046875 365.847656 230.960938 365.234375 228.695312 364.574219 C 221.386719 362.421875 214.902344 359.289062 207.859375 356.421875 C 203.089844 354.476562 198.480469 352.972656 193.566406 351.425781 C 187.6875 349.582031 181.945312 347.894531 176.230469 345.570312 C 174.34375 344.808594 171.265625 345.191406 169.855469 343.566406 C 169.167969 342.769531 169.226562 340.804688 169.226562 339.832031 C 169.226562 337.625 169.992188 334.292969 171.234375 332.371094 " fill-opacity="1" fill-rule="evenodd"/><g clip-path="url(#092d18cd82)"><path fill="#ffffff" d="M 461.410156 212.347656 C 459.96875 211.238281 458.089844 209.789062 457.007812 208.964844 C 452.234375 205.347656 447.8125 202.597656 443.371094 198.605469 C 433.105469 189.363281 424.574219 178.808594 412.050781 172.546875 C 405.699219 169.375 399.34375 167.113281 391.882812 167.941406 C 381.664062 169.078125 370.652344 177.363281 362.5625 182.964844 C 359.6875 184.953125 356.5625 186.359375 353.296875 187.664062 C 352.578125 187.949219 349.335938 189.128906 348.984375 189.480469 C 348.484375 189.980469 350.703125 192.652344 350.941406 193.066406 C 352.914062 196.515625 354.878906 199.109375 357.082031 202.417969 C 361.984375 209.765625 364.855469 220.519531 366.507812 229.105469 C 368.453125 239.21875 365.582031 249.269531 362.019531 258.660156 C 360.414062 262.890625 358.570312 268.65625 358.089844 273.207031 C 357.414062 279.625 359.867188 284.140625 361.261719 290.265625 C 362.925781 297.585938 361.222656 305.078125 360.714844 312.476562 C 360.601562 314.121094 366.519531 315.246094 367.9375 316.042969 C 371.613281 318.113281 375.25 318.945312 378.183594 320.011719 C 387.457031 323.382812 390.742188 324.699219 398.425781 330.824219 C 406.574219 337.320312 418.179688 347.59375 424.582031 357.492188 C 428.445312 363.464844 431.25 370.683594 437.25 371.335938 C 443.25 371.988281 451.769531 368.875 456.386719 367.085938 C 458.496094 366.265625 460.1875 365.546875 461.410156 365.003906 L 461.410156 212.347656 " fill-opacity="1" fill-rule="evenodd"/></g><g clip-path="url(#8436f9a4ae)"><path fill="#fbbb7d" d="M 461.410156 364.992188 C 460.042969 365.722656 457.835938 366.765625 454.496094 367.988281 C 452.835938 368.59375 446.542969 370.472656 440.308594 371.011719 C 439.304688 371.097656 436.644531 370.78125 435.882812 371.417969 C 435.660156 371.605469 437.714844 375.085938 438.367188 376.480469 C 441.285156 382.683594 445.453125 389.203125 449.253906 394.910156 C 452.46875 399.730469 455.800781 404.316406 459.828125 408.503906 C 460.007812 408.691406 460.699219 409.34375 461.410156 410.007812 L 461.410156 364.992188 " fill-opacity="1" fill-rule="evenodd"/></g><path fill="#ffc8bb" d="M 301.566406 214.988281 C 301.566406 214.988281 304.578125 211.515625 307.5 209.566406 C 310.371094 207.652344 314.132812 206.121094 314.132812 206.121094 C 314.132812 206.121094 315.601562 212.246094 310.816406 215.179688 C 307.855469 216.992188 301.566406 214.988281 301.566406 214.988281 " fill-opacity="1" fill-rule="evenodd"/><path fill="#ffffff" d="M 107.230469 234.472656 C 107.230469 234.472656 106.773438 242.171875 110.136719 248.722656 C 113.496094 255.273438 120.671875 260.671875 120.671875 260.671875 C 120.671875 260.671875 113.648438 265.6875 110.339844 272.695312 C 107.027344 279.703125 107.40625 286.550781 107.40625 286.550781 C 107.40625 286.550781 110.722656 289.316406 122.367188 289.269531 C 134.464844 289.222656 138.292969 286.453125 138.292969 286.453125 C 138.292969 286.453125 138.179688 279.078125 134.921875 272.15625 C 131.664062 265.230469 124.722656 260.609375 124.722656 260.609375 C 124.722656 260.609375 132.019531 255.746094 135.257812 249.195312 C 138.503906 242.644531 137.847656 233.472656 137.847656 233.472656 L 107.230469 234.472656 " fill-opacity="1" fill-rule="evenodd"/><path fill="#bf8f8b" d="M 103.921875 227.882812 L 106.523438 227.882812 L 106.523438 294.289062 L 103.921875 294.289062 L 103.921875 227.882812 " fill-opacity="1" fill-rule="evenodd"/><path fill="#bf8f8b" d="M 138.683594 227.734375 L 141.285156 227.734375 L 141.285156 294.144531 L 138.683594 294.144531 L 138.683594 227.734375 " fill-opacity="1" fill-rule="evenodd"/><path fill="#bf8f8b" d="M 99.714844 224.449219 C 99.714844 222.152344 109.773438 219.75 122.046875 219.75 C 134.320312 219.75 144.160156 222.152344 144.160156 224.449219 C 144.160156 225.511719 144 227.867188 144 227.867188 C 144 227.867188 129.804688 225.582031 120.90625 226.074219 C 112.71875 226.527344 100.234375 228.675781 100.234375 228.675781 C 100.234375 228.675781 99.714844 225.210938 99.714844 224.449219 " fill-opacity="1" fill-rule="evenodd"/><path fill="#bf8f8b" d="M 141.636719 293.265625 C 142.859375 293.601562 144.464844 294.042969 144.464844 294.433594 C 144.464844 295.910156 134.742188 297.105469 122.75 297.105469 C 110.753906 297.105469 101.03125 295.910156 101.03125 294.433594 C 101.03125 294.019531 104.34375 292.246094 105.730469 291.898438 C 105.730469 291.898438 138.238281 292.335938 141.636719 293.265625 " fill-opacity="1" fill-rule="evenodd"/><path fill="#bf8f8b" d="M 144.363281 294.613281 C 144.363281 294.613281 144.28125 298.917969 144.28125 299.308594 C 144.28125 300.785156 134.558594 301.980469 122.5625 301.980469 C 110.570312 301.980469 100.84375 300.785156 100.84375 299.308594 C 100.84375 298.890625 101.050781 294.367188 101.050781 294.367188 L 144.363281 294.613281 " fill-opacity="1" fill-rule="evenodd"/><path fill="#bf8f8b" d="M 138.378906 227.292969 C 138.378906 229.078125 138.265625 233.035156 138.265625 233.035156 C 138.265625 233.035156 126.855469 233.445312 122.179688 233.445312 C 116.359375 233.445312 107.183594 234.390625 107.183594 234.390625 C 107.183594 234.390625 106.8125 228.570312 106.8125 227.292969 C 106.8125 227.292969 138.378906 223.441406 138.378906 227.292969 " fill-opacity="1" fill-rule="evenodd"/><path fill="#fbbb7d" d="M 109.894531 247.027344 C 109.691406 246.792969 112.613281 254.667969 119.957031 259.773438 C 124.074219 262.632812 122.710938 270.914062 122.304688 272.796875 C 122.023438 274.089844 117.410156 273.277344 115.675781 275.15625 C 114.1875 276.773438 110.050781 277.265625 108.839844 279.070312 C 106.617188 282.402344 107.601562 286.832031 108.195312 286.929688 C 109.273438 287.109375 121.207031 292.066406 138.238281 286.394531 C 139.683594 285.914062 138.179688 280.046875 135.203125 279.53125 C 130.269531 278.675781 123.910156 275.894531 123.652344 273.875 C 123.066406 269.214844 122.496094 262.363281 125.734375 259.960938 C 129.453125 257.207031 133.878906 251.179688 134.765625 250.027344 C 137.546875 246.414062 135.867188 247.566406 135.691406 246.964844 C 135.511719 246.332031 134.222656 245.945312 133.695312 245.800781 C 131.707031 245.273438 129.339844 245.488281 127.308594 245.605469 C 125.417969 245.71875 123.515625 246.253906 121.632812 246.253906 L 109.894531 247.027344 " fill-opacity="1" fill-rule="evenodd"/><path fill="#bf8f8b" d="M 138.441406 286.796875 C 138.441406 286.796875 138.378906 291.097656 138.378906 291.488281 C 138.378906 292.964844 131.425781 294.160156 122.851562 294.160156 C 114.277344 294.160156 107.324219 292.964844 107.324219 291.488281 C 107.324219 291.070312 107.46875 286.546875 107.46875 286.546875 C 107.46875 286.546875 112.03125 289.132812 121.78125 289.09375 C 131.628906 289.0625 138.441406 286.796875 138.441406 286.796875 " fill-opacity="1" fill-rule="evenodd"/><path fill="#463b39" d="M 310.253906 228.804688 C 301.175781 228.804688 286.765625 223.492188 275.792969 208.738281 C 275.5 208.34375 275.582031 207.789062 275.976562 207.496094 C 276.371094 207.207031 276.921875 207.289062 277.214844 207.679688 C 291.972656 227.523438 311.210938 228.734375 316.03125 225.847656 C 321.859375 222.355469 325.097656 215.214844 326.785156 209.832031 C 326.933594 209.367188 327.425781 209.109375 327.898438 209.25 C 328.363281 209.402344 328.621094 209.898438 328.476562 210.367188 C 325.921875 218.5 321.933594 224.378906 316.945312 227.367188 C 315.414062 228.28125 313.09375 228.804688 310.253906 228.804688 " fill-opacity="1" fill-rule="nonzero"/><path fill="#463b39" d="M 302.28125 205.597656 C 302.101562 205.597656 301.929688 205.546875 301.777344 205.441406 C 301.542969 205.28125 301.0625 205.144531 300.597656 205.007812 C 299.480469 204.691406 298.09375 204.296875 297.570312 202.984375 C 297.3125 202.34375 297.53125 201.679688 297.722656 201.089844 C 297.8125 200.820312 297.921875 200.488281 297.914062 200.324219 C 297.847656 198.789062 296.808594 197.117188 295.261719 196.058594 C 294.859375 195.78125 294.753906 195.230469 295.03125 194.828125 C 295.308594 194.421875 295.859375 194.320312 296.261719 194.59375 C 298.285156 195.980469 299.597656 198.144531 299.6875 200.25 C 299.707031 200.734375 299.550781 201.21875 299.410156 201.644531 C 299.335938 201.867188 299.210938 202.242188 299.226562 202.363281 C 299.417969 202.828125 300.261719 203.070312 301.085938 203.308594 C 301.714844 203.488281 302.308594 203.65625 302.777344 203.980469 C 303.183594 204.257812 303.285156 204.808594 303.011719 205.210938 C 302.839844 205.464844 302.558594 205.597656 302.28125 205.597656 " fill-opacity="1" fill-rule="nonzero"/><path fill="#463b39" d="M 264.441406 198.351562 C 264.140625 198.351562 263.847656 198.199219 263.683594 197.921875 C 263.429688 197.5 263.566406 196.957031 263.984375 196.707031 C 268.082031 194.238281 268.710938 190.113281 269.4375 185.335938 L 269.460938 185.214844 C 269.816406 182.867188 269.902344 180.425781 269.996094 177.84375 C 270.171875 172.789062 270.355469 167.5625 272.722656 162.972656 C 274.4375 159.648438 278.96875 155.484375 283.585938 154.269531 C 286.078125 153.613281 288.359375 153.894531 290.183594 155.089844 C 290.59375 155.359375 290.710938 155.910156 290.441406 156.316406 C 290.171875 156.726562 289.625 156.839844 289.210938 156.574219 C 287.800781 155.648438 286.0625 155.453125 284.035156 155.984375 C 279.953125 157.058594 275.800781 160.871094 274.296875 163.785156 C 272.113281 168.019531 271.9375 173.046875 271.765625 177.90625 C 271.675781 180.425781 271.582031 183.03125 271.210938 185.484375 L 271.191406 185.605469 C 270.464844 190.386719 269.710938 195.328125 264.898438 198.222656 C 264.753906 198.308594 264.597656 198.351562 264.441406 198.351562 " fill-opacity="1" fill-rule="nonzero"/><path fill="#463b39" d="M 273.429688 209.328125 C 273.347656 209.328125 273.261719 209.316406 273.183594 209.292969 C 272.710938 209.152344 272.441406 208.664062 272.578125 208.191406 C 272.871094 207.199219 273.222656 206.214844 273.5625 205.265625 C 273.851562 204.457031 274.136719 203.652344 274.378906 202.863281 C 275.339844 199.730469 274.984375 194.335938 273.632812 191.546875 C 273.421875 191.109375 273.601562 190.578125 274.046875 190.363281 C 274.492188 190.148438 275.011719 190.335938 275.230469 190.773438 C 276.765625 193.949219 277.160156 199.839844 276.074219 203.382812 C 275.824219 204.199219 275.53125 205.027344 275.230469 205.863281 C 274.898438 206.789062 274.554688 207.75 274.277344 208.691406 C 274.167969 209.078125 273.8125 209.328125 273.429688 209.328125 " fill-opacity="1" fill-rule="nonzero"/><path fill="#463b39" d="M 291.5625 154.492188 C 291.230469 154.492188 290.914062 154.308594 290.761719 153.992188 C 288.335938 148.980469 284.042969 145.101562 278.984375 143.34375 C 278.519531 143.183594 278.277344 142.679688 278.433594 142.214844 C 278.597656 141.753906 279.101562 141.503906 279.5625 141.667969 C 285.0625 143.578125 289.730469 147.789062 292.359375 153.21875 C 292.570312 153.660156 292.386719 154.191406 291.945312 154.402344 C 291.824219 154.460938 291.6875 154.492188 291.5625 154.492188 " fill-opacity="1" fill-rule="nonzero"/><path fill="#463b39" d="M 275.9375 193.097656 C 275.792969 193.097656 275.648438 193.0625 275.511719 192.988281 C 275.082031 192.75 274.925781 192.214844 275.160156 191.785156 C 276.863281 188.6875 281.136719 186.628906 284.285156 186.425781 C 284.773438 186.390625 285.199219 186.761719 285.230469 187.25 C 285.261719 187.738281 284.890625 188.164062 284.402344 188.191406 C 281.785156 188.363281 278.101562 190.105469 276.714844 192.636719 C 276.550781 192.933594 276.25 193.097656 275.9375 193.097656 " fill-opacity="1" fill-rule="nonzero"/><path fill="#463b39" d="M 294.820312 180.453125 C 294.726562 180.453125 294.632812 180.4375 294.539062 180.40625 C 294.074219 180.253906 293.824219 179.75 293.976562 179.285156 C 295.09375 175.953125 300.609375 173.28125 303.054688 173.160156 C 303.503906 173.148438 303.964844 173.511719 303.984375 174 C 304.011719 174.488281 303.636719 174.90625 303.144531 174.929688 C 301.238281 175.027344 296.476562 177.414062 295.660156 179.847656 C 295.535156 180.21875 295.191406 180.453125 294.820312 180.453125 " fill-opacity="1" fill-rule="nonzero"/><path fill="#463b39" d="M 284.660156 198.574219 C 283.800781 197.328125 283.800781 195.835938 284.664062 195.242188 C 285.527344 194.644531 286.925781 195.171875 287.785156 196.414062 C 288.640625 197.65625 288.640625 199.144531 287.777344 199.742188 C 286.914062 200.339844 285.519531 199.816406 284.660156 198.574219 " fill-opacity="1" fill-rule="evenodd"/><path fill="#463b39" d="M 304.167969 185.460938 C 303.308594 184.21875 303.308594 182.726562 304.171875 182.132812 C 305.035156 181.535156 306.433594 182.058594 307.292969 183.304688 C 308.152344 184.546875 308.148438 186.039062 307.285156 186.632812 C 306.421875 187.230469 305.027344 186.703125 304.167969 185.460938 " fill-opacity="1" fill-rule="evenodd"/><path fill="#463b39" d="M 324.101562 244.363281 C 323.859375 244.363281 323.625 244.269531 323.453125 244.082031 C 319.09375 239.398438 314.171875 235.84375 308.960938 232.074219 C 307.527344 231.039062 306.089844 230 304.660156 228.933594 C 304.269531 228.640625 304.1875 228.085938 304.480469 227.695312 C 304.769531 227.300781 305.328125 227.21875 305.722656 227.515625 C 307.144531 228.574219 308.574219 229.609375 309.996094 230.636719 C 315.046875 234.289062 320.273438 238.066406 324.75 242.875 C 325.082031 243.234375 325.0625 243.792969 324.703125 244.128906 C 324.53125 244.285156 324.316406 244.363281 324.101562 244.363281 " fill-opacity="1" fill-rule="nonzero"/><path fill="#463b39" d="M 243.890625 333.636719 C 243.664062 333.636719 243.441406 333.550781 243.265625 333.382812 C 242.917969 333.039062 242.917969 332.476562 243.261719 332.128906 C 246.996094 328.363281 251.085938 324.042969 255.085938 319.628906 C 255.417969 319.265625 255.980469 319.238281 256.339844 319.566406 C 256.699219 319.894531 256.730469 320.457031 256.402344 320.820312 C 252.382812 325.25 248.273438 329.589844 244.519531 333.375 C 244.34375 333.550781 244.117188 333.636719 243.890625 333.636719 " fill-opacity="1" fill-rule="nonzero"/><path fill="#463b39" d="M 251.476562 366.21875 C 251.140625 366.21875 250.820312 366.027344 250.671875 365.703125 C 250.464844 365.257812 250.660156 364.734375 251.105469 364.527344 C 255.128906 362.667969 261.238281 359.449219 265.207031 356.5 C 265.601562 356.207031 266.15625 356.289062 266.449219 356.679688 C 266.742188 357.074219 266.660156 357.628906 266.265625 357.921875 C 262.1875 360.957031 255.949219 364.242188 251.847656 366.136719 C 251.726562 366.191406 251.601562 366.21875 251.476562 366.21875 " fill-opacity="1" fill-rule="nonzero"/><path fill="#463b39" d="M 287.851562 336.71875 C 287.621094 336.71875 287.382812 336.625 287.210938 336.445312 C 286.875 336.089844 286.886719 335.527344 287.242188 335.1875 C 297.519531 325.394531 317.519531 307.042969 336.011719 294.148438 C 336.410156 293.867188 336.964844 293.96875 337.246094 294.367188 C 337.523438 294.769531 337.425781 295.324219 337.023438 295.601562 C 318.628906 308.429688 298.707031 326.714844 288.464844 336.472656 C 288.292969 336.632812 288.074219 336.71875 287.851562 336.71875 " fill-opacity="1" fill-rule="nonzero"/><path fill="#463b39" d="M 171.253906 345.246094 C 170.644531 345.246094 170.019531 345.144531 169.53125 344.835938 C 169.054688 344.53125 168.761719 344.078125 168.683594 343.515625 L 168.636719 343.195312 C 168.378906 341.550781 167.769531 337.703125 170.488281 332.027344 C 170.703125 331.585938 171.234375 331.398438 171.671875 331.609375 C 172.113281 331.824219 172.304688 332.351562 172.089844 332.792969 C 169.609375 337.972656 170.152344 341.441406 170.386719 342.921875 L 170.4375 343.273438 C 170.871094 343.589844 172.109375 343.464844 172.972656 343.195312 C 174.910156 342.601562 176.558594 340.300781 177.882812 338.460938 C 178.082031 338.183594 178.273438 337.917969 178.457031 337.667969 C 181.777344 333.160156 182.972656 325.929688 183.9375 320.117188 L 184.191406 318.601562 C 184.25 318.246094 184.320312 317.878906 184.386719 317.507812 C 184.636719 316.144531 184.902344 314.730469 184.855469 313.503906 C 184.851562 313.339844 184.574219 312.921875 184.410156 312.667969 C 184.019531 312.070312 183.210938 310.824219 184.308594 309.976562 C 184.960938 309.464844 185.414062 309.785156 188.367188 311.863281 C 188.722656 312.113281 188.992188 312.304688 189.085938 312.363281 C 190.832031 313.28125 192.601562 314.28125 194.308594 315.242188 C 196.183594 316.296875 198.125 317.390625 200.078125 318.40625 C 207.257812 322.152344 214.527344 324.289062 222.21875 326.550781 C 223.667969 326.976562 225.125 327.40625 226.59375 327.847656 C 228.285156 328.359375 230.015625 328.917969 231.765625 329.488281 C 236.914062 331.15625 242.246094 332.882812 247.347656 333.539062 C 247.835938 333.601562 248.175781 334.046875 248.113281 334.53125 C 248.050781 335.015625 247.597656 335.359375 247.121094 335.300781 C 241.851562 334.621094 236.445312 332.867188 231.21875 331.171875 C 229.480469 330.609375 227.761719 330.050781 226.082031 329.546875 C 224.617188 329.105469 223.164062 328.675781 221.722656 328.253906 C 213.9375 325.964844 206.59375 323.804688 199.253906 319.980469 C 197.285156 318.953125 195.328125 317.851562 193.4375 316.785156 C 191.738281 315.828125 189.984375 314.839844 188.230469 313.914062 C 188.125 313.859375 187.976562 313.757812 187.347656 313.3125 C 187.121094 313.152344 186.796875 312.929688 186.453125 312.6875 C 186.550781 312.925781 186.617188 313.175781 186.628906 313.441406 C 186.679688 314.863281 186.390625 316.4375 186.132812 317.832031 C 186.0625 318.191406 185.996094 318.550781 185.9375 318.898438 L 185.6875 320.410156 C 184.691406 326.40625 183.457031 333.867188 179.886719 338.71875 C 179.703125 338.960938 179.519531 339.222656 179.324219 339.492188 C 177.84375 341.550781 176.003906 344.117188 173.496094 344.890625 C 173.222656 344.972656 172.253906 345.246094 171.253906 345.246094 " fill-opacity="1" fill-rule="nonzero"/><path fill="#463b39" d="M 244.546875 367.605469 C 236.582031 367.605469 226.105469 365.257812 221.640625 363.273438 C 207.054688 356.773438 195.46875 352.371094 184.078125 349 C 182.710938 348.597656 181.285156 348.101562 179.902344 347.625 C 176.984375 346.613281 173.964844 345.570312 171.117188 345.203125 C 170.628906 345.140625 170.289062 344.695312 170.351562 344.210938 C 170.414062 343.722656 170.851562 343.378906 171.34375 343.445312 C 174.375 343.832031 177.476562 344.910156 180.484375 345.949219 C 181.90625 346.441406 183.253906 346.90625 184.578125 347.300781 C 196.046875 350.695312 207.699219 355.117188 222.359375 361.652344 C 227.949219 364.144531 244.164062 367.355469 250.78125 365.046875 C 251.246094 364.890625 251.75 365.128906 251.910156 365.589844 C 252.074219 366.054688 251.832031 366.558594 251.367188 366.71875 C 249.585938 367.339844 247.207031 367.605469 244.546875 367.605469 " fill-opacity="1" fill-rule="nonzero"/><g clip-path="url(#3940b09b08)"><path fill="#463b39" d="M 461.410156 211.21875 C 458.785156 209.011719 456.019531 206.996094 453.324219 205.050781 C 450.214844 202.8125 446.996094 200.492188 444.074219 197.898438 C 441.742188 195.820312 439.394531 193.597656 436.902344 191.242188 C 422.5 177.605469 406.171875 162.152344 385.074219 168.640625 C 378.953125 170.523438 373.574219 174.328125 368.375 178.011719 C 362.347656 182.277344 356.65625 186.308594 349.867188 187.664062 C 349.390625 187.757812 349.078125 188.226562 349.175781 188.707031 C 349.273438 189.1875 349.738281 189.5 350.21875 189.402344 C 357.375 187.972656 363.484375 183.644531 369.394531 179.460938 C 374.484375 175.859375 379.746094 172.132812 385.59375 170.332031 C 405.699219 164.148438 421.628906 179.226562 435.683594 192.53125 C 438.183594 194.894531 440.542969 197.128906 442.898438 199.222656 C 445.882812 201.875 449.136719 204.222656 452.285156 206.492188 C 455.355469 208.703125 458.519531 210.988281 461.410156 213.539062 L 461.410156 211.21875 " fill-opacity="1" fill-rule="nonzero"/></g><g clip-path="url(#13cfe0534e)"><path fill="#463b39" d="M 461.410156 250.492188 C 454.320312 246.902344 445.625 240.8125 437.925781 235.417969 C 433.730469 232.480469 429.769531 229.699219 426.265625 227.453125 C 425.859375 227.1875 425.359375 226.859375 424.804688 226.488281 C 420.886719 223.882812 417.195312 221.535156 415.171875 221.40625 C 414.691406 221.371094 414.261719 221.742188 414.230469 222.234375 C 414.199219 222.71875 414.570312 223.140625 415.058594 223.175781 C 416.777344 223.285156 421.359375 226.328125 423.824219 227.964844 C 424.390625 228.339844 424.894531 228.675781 425.308594 228.941406 C 428.78125 231.171875 432.726562 233.9375 436.910156 236.871094 C 444.855469 242.441406 453.859375 248.753906 461.167969 252.359375 C 461.246094 252.398438 461.328125 252.421875 461.410156 252.433594 L 461.410156 250.492188 " fill-opacity="1" fill-rule="nonzero"/></g><path fill="#463b39" d="M 327.136719 249.933594 C 326.988281 249.933594 326.839844 249.898438 326.699219 249.820312 C 319.441406 245.667969 313.976562 240.300781 310.890625 234.300781 C 310.664062 233.863281 310.835938 233.328125 311.273438 233.105469 C 311.703125 232.882812 312.242188 233.050781 312.464844 233.488281 C 315.394531 239.183594 320.621094 244.296875 327.578125 248.28125 C 328.003906 248.523438 328.152344 249.066406 327.910156 249.488281 C 327.746094 249.777344 327.445312 249.933594 327.136719 249.933594 " fill-opacity="1" fill-rule="nonzero"/><path fill="#463b39" d="M 331.492188 267.097656 C 331.257812 267.097656 331.023438 267.003906 330.847656 266.816406 C 329.402344 265.292969 327.871094 263.960938 326.246094 262.558594 L 325.488281 261.90625 C 324.875 261.371094 324.238281 260.824219 323.589844 260.269531 C 316.769531 254.417969 308.28125 247.132812 304.613281 235.800781 C 304.464844 235.335938 304.71875 234.835938 305.183594 234.683594 C 305.652344 234.535156 306.148438 234.789062 306.300781 235.257812 C 309.8125 246.113281 318.09375 253.21875 324.746094 258.925781 C 325.394531 259.484375 326.03125 260.03125 326.652344 260.570312 L 327.402344 261.21875 C 328.988281 262.589844 330.628906 264.011719 332.136719 265.597656 C 332.472656 265.953125 332.457031 266.511719 332.101562 266.851562 C 331.933594 267.015625 331.710938 267.097656 331.492188 267.097656 " fill-opacity="1" fill-rule="nonzero"/><path fill="#463b39" d="M 446.136719 332.296875 C 445.902344 332.296875 445.667969 332.203125 445.492188 332.015625 C 442.402344 328.71875 438.539062 325.796875 434.800781 322.972656 C 433.226562 321.78125 431.597656 320.550781 430.078125 319.324219 C 418.371094 309.902344 409.207031 303.089844 400.378906 297.230469 C 395.941406 294.289062 391.328125 291.472656 386.863281 288.746094 C 380.121094 284.625 373.148438 280.363281 366.621094 275.582031 C 364.5625 274.074219 362.519531 272.429688 360.378906 270.5625 C 360.011719 270.242188 359.972656 269.679688 360.296875 269.3125 C 360.617188 268.941406 361.175781 268.902344 361.546875 269.230469 C 363.648438 271.0625 365.652344 272.671875 367.671875 274.152344 C 374.132812 278.886719 381.074219 283.128906 387.789062 287.230469 C 392.265625 289.96875 396.894531 292.796875 401.355469 295.757812 C 410.234375 301.644531 419.4375 308.488281 431.1875 317.945312 C 432.6875 319.152344 434.304688 320.375 435.871094 321.554688 C 439.664062 324.425781 443.59375 327.394531 446.785156 330.804688 C 447.121094 331.160156 447.101562 331.722656 446.746094 332.054688 C 446.574219 332.214844 446.355469 332.296875 446.136719 332.296875 " fill-opacity="1" fill-rule="nonzero"/><path fill="#463b39" d="M 427.46875 362.632812 C 427.164062 362.632812 426.867188 362.476562 426.703125 362.195312 C 423.695312 357.035156 418.105469 351.109375 413.609375 346.351562 L 412.023438 344.664062 C 404.625 336.773438 396.34375 328.816406 385.898438 324.027344 C 382.601562 322.515625 378.886719 321.109375 375.292969 319.746094 C 370.371094 317.882812 365.28125 315.957031 360.878906 313.632812 C 360.441406 313.402344 360.277344 312.871094 360.503906 312.4375 C 360.734375 312.003906 361.269531 311.832031 361.703125 312.066406 C 366.011719 314.332031 371.050781 316.242188 375.921875 318.089844 C 379.542969 319.460938 383.285156 320.878906 386.636719 322.417969 C 397.359375 327.332031 405.796875 335.429688 413.3125 343.453125 L 414.898438 345.132812 C 419.453125 349.960938 425.128906 355.96875 428.234375 361.300781 C 428.480469 361.726562 428.339844 362.265625 427.914062 362.515625 C 427.773438 362.59375 427.621094 362.632812 427.46875 362.632812 " fill-opacity="1" fill-rule="nonzero"/><path fill="#463b39" d="M 341.160156 298.84375 C 340.960938 298.84375 340.757812 298.777344 340.589844 298.640625 C 339.851562 298.019531 339.003906 297.296875 338.09375 296.519531 C 335.441406 294.261719 332.4375 291.695312 330.222656 290.074219 C 329.828125 289.785156 329.738281 289.230469 330.03125 288.835938 C 330.320312 288.441406 330.871094 288.351562 331.269531 288.644531 C 333.535156 290.308594 336.570312 292.890625 339.246094 295.175781 C 340.148438 295.945312 340.992188 296.664062 341.730469 297.28125 C 342.105469 297.59375 342.152344 298.152344 341.839844 298.527344 C 341.664062 298.738281 341.414062 298.84375 341.160156 298.84375 " fill-opacity="1" fill-rule="nonzero"/><path fill="#463b39" d="M 185.21875 315.335938 C 185.042969 315.335938 184.859375 315.28125 184.703125 315.171875 C 182.285156 313.441406 177.039062 309.8125 171.960938 306.296875 C 166.90625 302.800781 161.679688 299.183594 159.269531 297.457031 C 158.867188 297.167969 158.78125 296.617188 159.0625 296.21875 C 159.347656 295.820312 159.902344 295.726562 160.300781 296.011719 C 162.699219 297.730469 167.921875 301.34375 172.972656 304.839844 C 178.054688 308.355469 183.304688 311.992188 185.734375 313.730469 C 186.136719 314.015625 186.226562 314.570312 185.941406 314.964844 C 185.769531 315.207031 185.496094 315.335938 185.21875 315.335938 " fill-opacity="1" fill-rule="nonzero"/><path fill="#463b39" d="M 177.304688 338.898438 C 177.054688 338.898438 176.800781 338.792969 176.628906 338.585938 C 172.792969 334.074219 166.964844 329.179688 161.328125 324.441406 C 157.789062 321.46875 154.449219 318.664062 151.742188 316.070312 C 151.386719 315.730469 151.375 315.167969 151.710938 314.8125 C 152.050781 314.460938 152.613281 314.449219 152.964844 314.789062 C 155.636719 317.34375 158.957031 320.132812 162.46875 323.082031 C 168.164062 327.867188 174.046875 332.8125 177.980469 337.4375 C 178.296875 337.8125 178.25 338.371094 177.878906 338.6875 C 177.710938 338.832031 177.507812 338.898438 177.304688 338.898438 " fill-opacity="1" fill-rule="nonzero"/><path fill="#463b39" d="M 191.597656 350.046875 C 191.320312 350.046875 191.050781 349.917969 190.878906 349.679688 C 190.589844 349.28125 190.679688 348.726562 191.074219 348.441406 C 196.835938 344.261719 200.164062 338.324219 201.25 330.292969 C 201.3125 329.808594 201.769531 329.46875 202.246094 329.535156 C 202.730469 329.601562 203.070312 330.046875 203.003906 330.53125 C 201.851562 339.070312 198.289062 345.394531 192.117188 349.875 C 191.957031 349.988281 191.773438 350.046875 191.597656 350.046875 " fill-opacity="1" fill-rule="nonzero"/><path fill="#463b39" d="M 265.855469 357.667969 C 265.742188 357.667969 265.625 357.648438 265.511719 357.601562 C 265.058594 357.414062 264.847656 356.894531 265.035156 356.441406 C 270.449219 343.507812 262.460938 331.441406 255.417969 320.796875 C 252.207031 315.949219 249.179688 311.367188 247.695312 307.113281 C 246.351562 303.273438 246.238281 298.261719 247.339844 291.789062 C 248.550781 284.679688 250.71875 277.8125 252.808594 271.171875 C 253.820312 267.960938 254.867188 264.644531 255.792969 261.339844 C 259.324219 248.730469 259.601562 235.011719 256.644531 219.398438 C 255.824219 215.074219 254.328125 210.925781 252.878906 206.917969 C 252.214844 205.074219 251.523438 203.167969 250.902344 201.253906 C 248.25 193.074219 246.773438 183.410156 246.632812 173.304688 C 246.441406 159.527344 254.1875 142.429688 267.476562 137.652344 C 267.9375 137.488281 268.445312 137.726562 268.609375 138.1875 C 268.777344 138.648438 268.535156 139.15625 268.078125 139.320312 C 255.695312 143.769531 248.226562 160.410156 248.40625 173.28125 C 248.546875 183.210938 249.992188 192.695312 252.589844 200.707031 C 253.203125 202.597656 253.886719 204.488281 254.546875 206.316406 C 256.019531 210.390625 257.539062 214.605469 258.386719 219.066406 C 261.398438 234.957031 261.105469 248.941406 257.5 261.816406 C 256.566406 265.152344 255.515625 268.480469 254.5 271.703125 C 252.425781 278.289062 250.277344 285.097656 249.089844 292.085938 C 248.039062 298.253906 248.128906 302.980469 249.367188 306.527344 C 250.78125 310.574219 253.75 315.066406 256.898438 319.816406 C 264.1875 330.832031 272.449219 343.320312 266.671875 357.125 C 266.527344 357.464844 266.199219 357.667969 265.855469 357.667969 " fill-opacity="1" fill-rule="nonzero"/><path fill="#463b39" d="M 275.6875 364.058594 C 275.496094 364.058594 275.300781 364 275.140625 363.871094 C 274.753906 363.570312 274.683594 363.011719 274.988281 362.628906 L 275.710938 361.699219 C 279.929688 356.316406 283.265625 352.0625 285.707031 345.546875 C 288.058594 339.265625 286.164062 332.695312 284.324219 326.339844 C 283.738281 324.308594 283.132812 322.207031 282.691406 320.179688 C 281.378906 314.160156 281.773438 309.089844 282.769531 303.332031 C 284.34375 294.234375 288.144531 285.753906 291.828125 277.554688 C 293.808594 273.125 295.863281 268.550781 297.53125 263.949219 C 301.394531 253.261719 303.125 243.148438 304.65625 230.292969 C 304.714844 229.804688 305.152344 229.453125 305.644531 229.515625 C 306.128906 229.574219 306.472656 230.015625 306.417969 230.5 C 304.871094 243.480469 303.121094 253.703125 299.195312 264.554688 C 297.507812 269.214844 295.441406 273.824219 293.441406 278.28125 C 289.808594 286.378906 286.054688 294.757812 284.515625 303.632812 C 283.554688 309.191406 283.171875 314.0625 284.425781 319.800781 C 284.851562 321.769531 285.425781 323.75 286.027344 325.847656 C 287.945312 332.480469 289.921875 339.335938 287.367188 346.167969 C 284.828125 352.941406 281.421875 357.289062 277.109375 362.792969 L 276.382812 363.71875 C 276.207031 363.941406 275.949219 364.058594 275.6875 364.058594 " fill-opacity="1" fill-rule="nonzero"/><path fill="#463b39" d="M 329.074219 230.328125 C 328.96875 230.328125 328.863281 230.308594 328.761719 230.269531 C 328.300781 230.09375 328.070312 229.582031 328.246094 229.125 C 333.054688 216.5 330.949219 202.015625 322.617188 190.378906 C 320.398438 187.277344 317.375 184.445312 314.453125 181.714844 C 312.5 179.882812 310.480469 177.992188 308.71875 176.035156 C 305.773438 172.765625 303.234375 168.980469 300.777344 165.316406 C 299 162.671875 297.164062 159.933594 295.207031 157.445312 C 294.902344 157.0625 294.96875 156.503906 295.355469 156.203125 C 295.738281 155.898438 296.296875 155.964844 296.601562 156.351562 C 298.597656 158.890625 300.453125 161.65625 302.25 164.332031 C 304.667969 167.941406 307.171875 171.675781 310.035156 174.847656 C 311.746094 176.75 313.738281 178.617188 315.667969 180.417969 C 318.652344 183.214844 321.738281 186.101562 324.0625 189.34375 C 332.738281 201.46875 334.921875 216.574219 329.902344 229.757812 C 329.765625 230.109375 329.433594 230.328125 329.074219 230.328125 " fill-opacity="1" fill-rule="nonzero"/><path fill="#463b39" d="M 339.492188 306.011719 C 339.367188 306.011719 339.238281 305.984375 339.117188 305.925781 C 338.675781 305.71875 338.484375 305.191406 338.691406 304.746094 C 343.785156 293.941406 339.464844 283.730469 334.882812 272.917969 C 331.695312 265.390625 328.402344 257.609375 328.507812 249.539062 C 328.589844 243.429688 330.199219 238.089844 331.761719 232.933594 C 333.878906 225.929688 335.871094 219.320312 334.183594 211.09375 C 334.082031 210.617188 334.390625 210.148438 334.871094 210.050781 C 335.347656 209.949219 335.820312 210.257812 335.917969 210.734375 C 337.703125 219.402344 335.542969 226.539062 333.460938 233.445312 C 331.9375 238.488281 330.359375 243.699219 330.28125 249.566406 C 330.179688 257.261719 333.398438 264.871094 336.515625 272.226562 C 341.042969 282.921875 345.726562 293.980469 340.296875 305.503906 C 340.144531 305.824219 339.824219 306.011719 339.492188 306.011719 " fill-opacity="1" fill-rule="nonzero"/><path fill="#463b39" d="M 343.371094 317.347656 C 343.085938 317.347656 342.800781 317.207031 342.628906 316.949219 C 342.363281 316.542969 342.472656 315.992188 342.882812 315.722656 C 349.25 311.5 350.414062 309.71875 349.417969 298.753906 C 349.375 298.269531 349.734375 297.839844 350.222656 297.792969 C 350.707031 297.761719 351.140625 298.109375 351.183594 298.597656 C 352.242188 310.292969 350.640625 312.707031 343.863281 317.199219 C 343.710938 317.300781 343.542969 317.347656 343.371094 317.347656 " fill-opacity="1" fill-rule="nonzero"/><path fill="#463b39" d="M 357.105469 184.710938 C 357.007812 184.710938 356.90625 184.691406 356.804688 184.65625 C 346.535156 180.941406 340.667969 171.535156 334.996094 162.441406 C 332.328125 158.167969 329.8125 154.132812 326.878906 150.683594 C 317.800781 140 301.847656 129.402344 284.320312 131.695312 C 282.0625 131.992188 279.945312 132.71875 277.707031 133.492188 C 276.214844 134.011719 274.671875 134.542969 273.085938 134.929688 C 272.609375 135.046875 272.128906 134.757812 272.015625 134.28125 C 271.898438 133.808594 272.1875 133.328125 272.664062 133.210938 C 274.171875 132.839844 275.671875 132.320312 277.128906 131.816406 C 279.351562 131.050781 281.652344 130.253906 284.09375 129.9375 C 302.328125 127.554688 318.847656 138.496094 328.226562 149.535156 C 331.246094 153.082031 333.917969 157.363281 336.496094 161.503906 C 342.011719 170.34375 347.714844 179.480469 357.410156 182.988281 C 357.867188 183.152344 358.109375 183.664062 357.941406 184.125 C 357.808594 184.484375 357.46875 184.710938 357.105469 184.710938 " fill-opacity="1" fill-rule="nonzero"/><path fill="#463b39" d="M 356.054688 319.6875 C 355.863281 319.6875 355.671875 319.625 355.507812 319.496094 C 355.121094 319.191406 355.058594 318.632812 355.363281 318.25 C 360.746094 311.4375 362.515625 304.003906 360.925781 294.851562 C 360.5 292.382812 359.8125 290.011719 359.148438 287.722656 C 357.980469 283.6875 356.769531 279.515625 356.988281 274.824219 C 357.273438 268.667969 359.484375 262.980469 361.625 257.484375 C 362.875 254.273438 364.164062 250.960938 365.035156 247.617188 C 366.75 241.066406 366.199219 233.597656 365.433594 228.492188 C 363.726562 217.089844 358.332031 206.730469 353.277344 198.101562 C 352.398438 196.605469 351.421875 195.152344 350.386719 193.613281 C 347.964844 190.019531 345.460938 186.304688 344.414062 182.054688 C 344.296875 181.578125 344.585938 181.097656 345.0625 180.980469 C 345.539062 180.867188 346.019531 181.15625 346.136719 181.628906 C 347.101562 185.574219 349.519531 189.160156 351.855469 192.621094 C 352.863281 194.117188 353.902344 195.660156 354.808594 197.203125 C 359.945312 205.980469 365.4375 216.53125 367.1875 228.226562 C 367.976562 233.5 368.539062 241.226562 366.75 248.066406 C 365.851562 251.507812 364.542969 254.871094 363.277344 258.125 C 361.191406 263.492188 359.035156 269.039062 358.757812 274.902344 C 358.554688 279.308594 359.671875 283.152344 360.851562 287.226562 C 361.527344 289.566406 362.226562 291.984375 362.671875 294.546875 C 364.332031 304.097656 362.394531 312.210938 356.753906 319.347656 C 356.578125 319.570312 356.320312 319.6875 356.054688 319.6875 " fill-opacity="1" fill-rule="nonzero"/><g clip-path="url(#740a0ae99d)"><path fill="#463b39" d="M 461.410156 364.101562 C 455.964844 367.085938 448.332031 369.332031 441.953125 369.777344 C 441.425781 369.8125 440.855469 369.878906 440.257812 369.949219 C 438.179688 370.191406 435.828125 370.464844 434.269531 369.574219 C 431.371094 367.925781 429.742188 365.019531 428.195312 361.933594 C 427.976562 361.5 427.441406 361.324219 427.007812 361.539062 C 426.566406 361.757812 426.390625 362.289062 426.609375 362.730469 C 428.21875 365.933594 430.066406 369.21875 433.390625 371.117188 C 434.527344 371.761719 435.875 371.957031 437.230469 371.957031 C 438.339844 371.957031 439.457031 371.828125 440.460938 371.710938 C 441.03125 371.644531 441.574219 371.582031 442.074219 371.542969 C 448.359375 371.105469 455.824219 368.976562 461.410156 366.105469 L 461.410156 364.101562 " fill-opacity="1" fill-rule="nonzero"/></g><g clip-path="url(#25e4ebbbb9)"><path fill="#463b39" d="M 461.410156 409.054688 C 450.394531 396.707031 441.769531 381.585938 436.386719 370.851562 C 436.167969 370.414062 435.640625 370.234375 435.199219 370.453125 C 434.757812 370.675781 434.582031 371.207031 434.800781 371.644531 C 440.445312 382.902344 449.628906 398.957031 461.410156 411.699219 L 461.410156 409.054688 " fill-opacity="1" fill-rule="nonzero"/></g><path fill="#463b39" d="M 303.207031 214.511719 C 305.328125 215.007812 308.65625 215.464844 310.351562 214.425781 C 313.410156 212.550781 313.566406 209.128906 313.421875 207.394531 C 312.125 207.980469 309.851562 209.066406 307.992188 210.304688 C 306.179688 211.507812 304.304688 213.359375 303.207031 214.511719 Z M 307.351562 216.816406 C 304.441406 216.816406 301.480469 215.890625 301.296875 215.832031 C 301.011719 215.742188 300.792969 215.515625 300.714844 215.226562 C 300.628906 214.941406 300.703125 214.632812 300.894531 214.40625 C 301.023438 214.261719 304.019531 210.820312 307.007812 208.828125 C 309.921875 206.886719 313.644531 205.363281 313.800781 205.300781 C 314.042969 205.203125 314.308594 205.214844 314.539062 205.332031 C 314.769531 205.453125 314.9375 205.664062 314.996094 205.914062 C 315.011719 205.984375 316.554688 212.703125 311.28125 215.9375 C 310.207031 216.597656 308.785156 216.816406 307.351562 216.816406 " fill-opacity="1" fill-rule="nonzero"/><path fill="#463b39" d="M 159.570312 297.34375 C 159.339844 297.34375 159.105469 297.25 158.929688 297.066406 C 155.882812 293.867188 148.191406 290.25 142.335938 288.238281 C 141.875 288.078125 141.625 287.570312 141.785156 287.113281 C 141.945312 286.644531 142.445312 286.402344 142.914062 286.558594 C 149.167969 288.710938 156.945312 292.410156 160.214844 295.847656 C 160.550781 296.203125 160.539062 296.761719 160.183594 297.097656 C 160.011719 297.261719 159.792969 297.34375 159.570312 297.34375 " fill-opacity="1" fill-rule="nonzero"/><path fill="#463b39" d="M 81.183594 300.335938 C 81.050781 300.335938 80.914062 300.304688 80.785156 300.242188 C 79.492188 299.589844 78.90625 298.785156 79.039062 297.855469 C 79.449219 294.996094 88.039062 293.277344 89.757812 292.964844 C 91.621094 292.621094 94.777344 292.609375 99.6875 292.929688 C 100.175781 292.964844 100.546875 293.386719 100.511719 293.875 C 100.480469 294.363281 100.050781 294.730469 99.570312 294.703125 C 94.878906 294.390625 91.773438 294.394531 90.082031 294.707031 C 85.164062 295.609375 80.988281 297.304688 80.796875 298.105469 C 80.808594 298.105469 80.929688 298.328125 81.582031 298.65625 C 82.019531 298.875 82.195312 299.410156 81.976562 299.847656 C 81.820312 300.15625 81.507812 300.335938 81.183594 300.335938 " fill-opacity="1" fill-rule="nonzero"/><path fill="#463b39" d="M 89.574219 293.371094 C 89.167969 293.371094 88.800781 293.09375 88.710938 292.6875 C 88.601562 292.207031 88.898438 291.734375 89.375 291.621094 C 90.109375 291.457031 90.824219 291.285156 91.527344 291.113281 C 95.070312 290.269531 98.421875 289.476562 102.355469 289.511719 C 102.847656 289.515625 103.238281 289.921875 103.230469 290.410156 C 103.226562 290.898438 102.800781 291.296875 102.335938 291.285156 C 98.621094 291.214844 95.519531 291.984375 91.941406 292.839844 C 91.234375 293.007812 90.515625 293.183594 89.769531 293.351562 C 89.703125 293.367188 89.636719 293.371094 89.574219 293.371094 " fill-opacity="1" fill-rule="nonzero"/><path fill="#463b39" d="M 154.085938 316.035156 C 154.03125 316.035156 153.976562 316.03125 153.917969 316.019531 C 147.410156 314.789062 140.824219 314.957031 134.460938 315.117188 C 130.796875 315.207031 127.003906 315.304688 123.242188 315.132812 C 118.457031 314.921875 113.308594 313.378906 108.445312 311.816406 C 107.519531 311.519531 106.59375 311.296875 105.699219 311.082031 C 103.988281 310.675781 102.226562 310.253906 100.511719 309.300781 C 99.265625 308.605469 98.035156 307.796875 96.839844 307.015625 C 95.160156 305.914062 93.417969 304.769531 91.621094 303.941406 C 91.554688 303.914062 91.390625 303.859375 91.179688 303.792969 C 89.078125 303.097656 87.808594 302.601562 87.921875 301.535156 C 87.988281 300.882812 88.320312 300.304688 88.890625 299.867188 C 90.6875 298.484375 94.546875 298.742188 95.480469 298.890625 C 98.863281 299.417969 101.753906 300.921875 104.554688 302.375 C 106.546875 303.414062 108.429688 304.390625 110.476562 305.050781 C 111.3125 305.316406 112.199219 305.246094 113.136719 305.171875 C 113.984375 305.105469 114.863281 305.039062 115.773438 305.207031 C 116.253906 305.300781 116.570312 305.761719 116.480469 306.246094 C 116.386719 306.726562 115.925781 307.042969 115.445312 306.949219 C 114.765625 306.820312 114.042969 306.878906 113.273438 306.941406 C 112.207031 307.023438 111.101562 307.109375 109.933594 306.734375 C 107.742188 306.03125 105.707031 304.972656 103.734375 303.949219 C 100.941406 302.5 98.300781 301.125 95.210938 300.640625 C 93.925781 300.445312 90.996094 300.480469 89.972656 301.269531 C 89.917969 301.316406 89.867188 301.355469 89.835938 301.394531 C 90.367188 301.65625 91.359375 301.984375 91.734375 302.105469 C 92.039062 302.207031 92.269531 302.289062 92.359375 302.328125 C 94.28125 303.214844 96.078125 304.390625 97.816406 305.535156 C 99.035156 306.332031 100.183594 307.085938 101.375 307.753906 C 102.875 308.585938 104.445312 308.960938 106.109375 309.359375 C 107.039062 309.582031 107.996094 309.8125 108.988281 310.128906 C 113.933594 311.71875 118.75 313.160156 123.320312 313.363281 C 127.023438 313.53125 130.78125 313.433594 134.417969 313.34375 C 140.875 313.183594 147.550781 313.015625 154.246094 314.277344 C 154.726562 314.367188 155.046875 314.832031 154.957031 315.3125 C 154.875 315.738281 154.503906 316.035156 154.085938 316.035156 " fill-opacity="1" fill-rule="nonzero"/><path fill="#463b39" d="M 91.519531 304.570312 C 91.457031 304.570312 91.390625 304.558594 91.328125 304.546875 C 90.578125 304.378906 89.480469 304.308594 88.316406 304.230469 C 85.347656 304.035156 81.980469 303.820312 80.394531 301.960938 C 80.109375 301.625 80 301.207031 80.078125 300.777344 C 80.300781 299.628906 81.902344 298.761719 81.972656 298.726562 C 84.53125 297.371094 87.03125 296.980469 89.347656 296.765625 C 92.203125 296.496094 95.230469 296.574219 99.175781 297.015625 C 99.660156 297.066406 100.015625 297.507812 99.960938 297.992188 C 99.902344 298.480469 99.464844 298.832031 98.980469 298.777344 C 95.160156 298.347656 92.242188 298.273438 89.515625 298.527344 C 87.378906 298.730469 85.085938 299.082031 82.804688 300.292969 C 82.519531 300.445312 82.105469 300.761719 81.914062 300.988281 C 83.136719 302.117188 86.058594 302.308594 88.433594 302.460938 C 89.667969 302.542969 90.835938 302.617188 91.714844 302.816406 C 92.191406 302.925781 92.492188 303.402344 92.382812 303.878906 C 92.292969 304.289062 91.925781 304.570312 91.519531 304.570312 " fill-opacity="1" fill-rule="nonzero"/><path fill="#463b39" d="M 122.074219 290.15625 C 110.480469 290.15625 106.984375 287.351562 106.839844 287.230469 C 106.652344 287.074219 106.535156 286.847656 106.523438 286.601562 C 106.507812 286.3125 106.171875 279.445312 109.539062 272.316406 C 112.21875 266.640625 117.171875 262.300781 119.230469 260.660156 C 117.15625 258.957031 112.078125 254.453125 109.347656 249.125 C 105.917969 242.4375 106.328125 234.742188 106.347656 234.421875 C 106.375 233.933594 106.796875 233.5625 107.28125 233.585938 C 107.773438 233.617188 108.144531 234.035156 108.117188 234.523438 C 108.113281 234.597656 107.722656 242.070312 110.925781 248.316406 C 114.152344 254.613281 121.136719 259.914062 121.203125 259.96875 C 121.429688 260.136719 121.5625 260.40625 121.554688 260.6875 C 121.554688 260.964844 121.414062 261.230469 121.1875 261.398438 C 121.117188 261.445312 114.308594 266.367188 111.140625 273.074219 C 108.4375 278.792969 108.269531 284.472656 108.28125 286.066406 C 109.3125 286.65625 113.089844 288.382812 122.074219 288.382812 C 122.171875 288.382812 122.265625 288.382812 122.367188 288.382812 C 131.875 288.347656 136.152344 286.589844 137.386719 285.957031 C 137.289062 284.191406 136.769531 278.164062 134.117188 272.53125 C 131.003906 265.910156 124.296875 261.390625 124.234375 261.347656 C 123.984375 261.179688 123.835938 260.902344 123.835938 260.609375 C 123.835938 260.3125 123.984375 260.035156 124.230469 259.871094 C 124.304688 259.824219 131.371094 255.054688 134.464844 248.800781 C 137.554688 242.5625 136.816406 234.574219 136.808594 234.492188 C 136.761719 234.003906 137.117188 233.570312 137.605469 233.523438 C 138.101562 233.480469 138.523438 233.832031 138.574219 234.320312 C 138.609375 234.664062 139.371094 242.886719 136.054688 249.589844 C 133.449219 254.855469 128.414062 258.992188 126.242188 260.609375 C 128.34375 262.207031 133.125 266.253906 135.726562 271.78125 C 139.027344 278.792969 139.175781 286.132812 139.183594 286.441406 C 139.183594 286.734375 139.046875 287.003906 138.8125 287.175781 C 138.648438 287.292969 134.613281 290.109375 122.371094 290.15625 C 122.273438 290.15625 122.171875 290.15625 122.074219 290.15625 " fill-opacity="1" fill-rule="nonzero"/><path fill="#463b39" d="M 104.808594 293.402344 L 105.636719 293.402344 L 105.636719 228.769531 L 104.808594 228.769531 Z M 106.523438 295.175781 L 103.921875 295.175781 C 103.429688 295.175781 103.035156 294.777344 103.035156 294.289062 L 103.035156 227.882812 C 103.035156 227.390625 103.429688 226.996094 103.921875 226.996094 L 106.523438 226.996094 C 107.011719 226.996094 107.40625 227.390625 107.40625 227.882812 L 107.40625 294.289062 C 107.40625 294.777344 107.011719 295.175781 106.523438 295.175781 " fill-opacity="1" fill-rule="nonzero"/><path fill="#463b39" d="M 139.570312 293.257812 L 140.398438 293.257812 L 140.398438 228.621094 L 139.570312 228.621094 Z M 141.285156 295.03125 L 138.683594 295.03125 C 138.191406 295.03125 137.796875 294.632812 137.796875 294.144531 L 137.796875 227.734375 C 137.796875 227.246094 138.191406 226.847656 138.683594 226.847656 L 141.285156 226.847656 C 141.773438 226.847656 142.171875 227.246094 142.171875 227.734375 L 142.171875 294.144531 C 142.171875 294.632812 141.773438 295.03125 141.285156 295.03125 " fill-opacity="1" fill-rule="nonzero"/><path fill="#463b39" d="M 100.601562 224.457031 C 100.605469 224.875 100.800781 226.390625 100.980469 227.652344 C 104.003906 227.15625 113.984375 225.570312 120.855469 225.1875 C 128.511719 224.761719 139.804688 226.335938 143.175781 226.84375 C 143.222656 226.078125 143.273438 225.042969 143.273438 224.449219 C 143.019531 223.316406 135.484375 220.636719 122.046875 220.636719 C 108.558594 220.636719 100.917969 223.3125 100.601562 224.457031 Z M 100.234375 229.5625 C 100.050781 229.5625 99.867188 229.503906 99.714844 229.394531 C 99.519531 229.253906 99.394531 229.042969 99.359375 228.808594 C 99.304688 228.445312 98.832031 225.253906 98.832031 224.449219 C 98.832031 220.597656 112.40625 218.863281 122.046875 218.863281 C 131.597656 218.863281 145.046875 220.597656 145.046875 224.449219 C 145.046875 225.53125 144.890625 227.832031 144.886719 227.925781 C 144.867188 228.175781 144.746094 228.40625 144.550781 228.558594 C 144.355469 228.714844 144.109375 228.78125 143.859375 228.742188 C 143.714844 228.71875 129.65625 226.484375 120.953125 226.957031 C 112.914062 227.402344 100.511719 229.527344 100.382812 229.546875 C 100.335938 229.558594 100.285156 229.5625 100.234375 229.5625 " fill-opacity="1" fill-rule="nonzero"/><path fill="#463b39" d="M 143.675781 294.730469 L 143.683594 294.730469 Z M 122.75 297.992188 C 116.910156 297.992188 111.417969 297.714844 107.28125 297.203125 C 100.695312 296.394531 100.140625 295.347656 100.140625 294.433594 C 100.140625 293.285156 101.574219 292.765625 102.972656 292.410156 C 103.445312 292.285156 103.925781 292.578125 104.046875 293.050781 C 104.167969 293.523438 103.882812 294.007812 103.40625 294.128906 C 102.945312 294.25 102.613281 294.351562 102.378906 294.445312 C 104.5 295.269531 111.828125 296.21875 122.75 296.21875 C 133.667969 296.21875 140.996094 295.269531 143.117188 294.445312 C 142.921875 294.371094 142.667969 294.285156 142.328125 294.195312 C 141.855469 294.0625 141.578125 293.574219 141.707031 293.105469 C 141.835938 292.632812 142.320312 292.355469 142.796875 292.484375 C 144.058594 292.828125 145.351562 293.332031 145.351562 294.433594 C 145.351562 295.347656 144.800781 296.394531 138.214844 297.203125 C 134.078125 297.714844 128.582031 297.992188 122.75 297.992188 " fill-opacity="1" fill-rule="nonzero"/><path fill="#463b39" d="M 122.5625 302.867188 C 116.726562 302.867188 111.234375 302.589844 107.097656 302.078125 C 100.511719 301.269531 99.960938 300.222656 99.960938 299.308594 C 99.960938 298.882812 100.140625 294.792969 100.167969 294.324219 C 100.1875 293.839844 100.613281 293.484375 101.089844 293.484375 C 101.578125 293.503906 101.957031 293.917969 101.933594 294.410156 C 101.863281 295.996094 101.761719 298.34375 101.738281 299.09375 C 102.984375 299.960938 110.628906 301.09375 122.5625 301.09375 C 134.523438 301.09375 142.171875 299.953125 143.394531 299.085938 C 143.410156 298.113281 143.476562 294.597656 143.476562 294.597656 L 145.25 294.628906 C 145.25 294.628906 145.164062 298.921875 145.164062 299.308594 C 145.164062 300.222656 144.617188 301.269531 138.027344 302.078125 C 133.890625 302.589844 128.398438 302.867188 122.5625 302.867188 " fill-opacity="1" fill-rule="nonzero"/><path fill="#463b39" d="M 107.183594 235.273438 C 106.726562 235.273438 106.339844 234.925781 106.300781 234.460938 C 106.285156 234.28125 105.925781 229.988281 105.925781 228.988281 C 105.925781 228.5 106.324219 228.101562 106.8125 228.101562 C 107.304688 228.101562 107.699219 228.5 107.699219 228.988281 C 107.699219 229.609375 107.875 231.933594 107.996094 233.4375 C 110.441406 233.261719 117.445312 232.785156 122.179688 232.785156 C 126.058594 232.785156 134.691406 232.566406 137.40625 232.492188 C 137.441406 231.503906 137.492188 229.878906 137.492188 228.988281 C 137.492188 228.5 137.886719 228.101562 138.378906 228.101562 C 138.867188 228.101562 139.265625 228.5 139.265625 228.988281 C 139.265625 230.347656 139.15625 233.265625 139.148438 233.390625 C 139.132812 233.855469 138.753906 234.230469 138.289062 234.242188 C 138.171875 234.246094 126.8125 234.558594 122.179688 234.558594 C 116.460938 234.558594 107.34375 235.265625 107.253906 235.273438 C 107.230469 235.273438 107.203125 235.273438 107.183594 235.273438 " fill-opacity="1" fill-rule="nonzero"/><path fill="#463b39" d="M 124.066406 246.929688 C 126.417969 247.652344 128.640625 248.332031 130.890625 248.082031 C 132.183594 247.9375 133.464844 247.796875 134.523438 247.265625 C 134.574219 247.242188 134.664062 247.195312 134.746094 247.148438 C 134.578125 247.050781 134.1875 246.851562 133.464844 246.660156 C 131.8125 246.214844 129.765625 246.339844 127.960938 246.457031 L 127.359375 246.492188 C 126.570312 246.539062 125.777344 246.664062 124.9375 246.796875 C 124.648438 246.84375 124.359375 246.886719 124.066406 246.929688 Z M 129.9375 249.902344 C 127.699219 249.902344 125.566406 249.246094 123.496094 248.609375 C 122.128906 248.191406 120.84375 247.792969 119.550781 247.578125 C 116.203125 247.023438 113.335938 247.429688 110.019531 247.902344 C 109.527344 247.980469 109.085938 247.636719 109.019531 247.152344 C 108.949219 246.667969 109.285156 246.21875 109.769531 246.152344 C 113.089844 245.675781 116.230469 245.226562 119.84375 245.832031 C 120.15625 245.882812 120.46875 245.945312 120.78125 246.011719 C 120.882812 245.640625 121.226562 245.367188 121.632812 245.367188 C 122.617188 245.367188 123.609375 245.210938 124.664062 245.046875 C 125.503906 244.914062 126.378906 244.777344 127.257812 244.722656 L 127.851562 244.6875 C 129.792969 244.566406 131.988281 244.425781 133.921875 244.945312 C 135.488281 245.363281 136.320312 245.929688 136.546875 246.71875 C 136.925781 248.050781 135.714844 248.652344 135.3125 248.855469 C 133.976562 249.523438 132.46875 249.691406 131.140625 249.835938 C 130.734375 249.882812 130.332031 249.902344 129.9375 249.902344 " fill-opacity="1" fill-rule="nonzero"/><path fill="#463b39" d="M 136.210938 281.09375 C 136.078125 281.09375 135.945312 281.0625 135.816406 280.996094 C 134.71875 280.449219 133.511719 280.140625 132.234375 279.8125 C 130.914062 279.472656 129.546875 279.125 128.257812 278.480469 C 127.246094 277.972656 126.355469 277.34375 125.492188 276.742188 C 123.597656 275.410156 121.96875 274.265625 119.566406 274.742188 C 117.78125 275.101562 116.25 276.039062 114.628906 277.03125 C 112.972656 278.050781 111.257812 279.101562 109.21875 279.507812 C 108.738281 279.601562 108.269531 279.292969 108.171875 278.8125 C 108.078125 278.332031 108.390625 277.867188 108.867188 277.773438 C 110.601562 277.425781 112.105469 276.503906 113.703125 275.523438 C 115.382812 274.492188 117.121094 273.421875 119.21875 273.003906 C 122.367188 272.375 124.472656 273.859375 126.511719 275.289062 C 127.320312 275.855469 128.15625 276.445312 129.046875 276.894531 C 130.171875 277.453125 131.386719 277.765625 132.675781 278.097656 C 133.988281 278.433594 135.34375 278.777344 136.609375 279.414062 C 137.046875 279.632812 137.226562 280.164062 137.007812 280.601562 C 136.847656 280.914062 136.539062 281.09375 136.210938 281.09375 " fill-opacity="1" fill-rule="nonzero"/><path fill="#463b39" d="M 122.457031 274.351562 C 121.96875 274.351562 121.570312 273.953125 121.570312 273.464844 C 121.570312 271.503906 121.542969 269.214844 121.304688 267.097656 C 121.226562 266.410156 121.210938 265.753906 121.195312 265.117188 C 121.15625 263.707031 121.121094 262.492188 120.507812 261.265625 C 120.289062 260.828125 120.46875 260.292969 120.90625 260.078125 C 121.339844 259.851562 121.875 260.035156 122.09375 260.472656 C 122.882812 262.050781 122.925781 263.585938 122.964844 265.070312 C 122.980469 265.671875 123 266.289062 123.066406 266.898438 C 123.3125 269.105469 123.34375 271.457031 123.34375 273.464844 C 123.34375 273.953125 122.949219 274.351562 122.457031 274.351562 " fill-opacity="1" fill-rule="nonzero"/><path fill="#463b39" d="M 123.613281 274.488281 C 123.125 274.488281 122.730469 274.089844 122.730469 273.601562 C 122.730469 272.515625 122.648438 271.410156 122.570312 270.335938 C 122.417969 268.226562 122.265625 266.042969 122.675781 263.773438 L 122.765625 263.25 C 122.957031 262.101562 123.171875 260.800781 123.929688 259.792969 C 124.222656 259.402344 124.78125 259.320312 125.167969 259.617188 C 125.558594 259.910156 125.640625 260.464844 125.347656 260.855469 C 124.851562 261.515625 124.671875 262.589844 124.515625 263.539062 L 124.421875 264.089844 C 124.046875 266.136719 124.191406 268.117188 124.339844 270.210938 C 124.421875 271.3125 124.5 272.453125 124.5 273.601562 C 124.5 274.089844 124.105469 274.488281 123.613281 274.488281 " fill-opacity="1" fill-rule="nonzero"/><path fill="#463b39" d="M 122.851562 295.046875 C 120.109375 295.046875 106.4375 294.875 106.4375 291.488281 C 106.4375 291.070312 106.570312 286.984375 106.585938 286.519531 C 106.601562 286.03125 106.972656 285.640625 107.5 285.664062 C 107.992188 285.679688 108.371094 286.085938 108.359375 286.578125 C 108.320312 287.730469 108.230469 290.648438 108.214844 291.359375 C 108.941406 292.039062 113.890625 293.273438 122.851562 293.273438 C 131.824219 293.273438 136.777344 292.035156 137.492188 291.355469 C 137.5 290.523438 137.554688 286.78125 137.554688 286.78125 L 139.324219 286.808594 C 139.324219 286.808594 139.265625 291.101562 139.265625 291.488281 C 139.265625 294.875 125.59375 295.046875 122.851562 295.046875 " fill-opacity="1" fill-rule="nonzero"/></svg>